<?xml version="1.0" encoding="utf-8"?>
<!-- Generator: Adobe Illustrator 21.1.0, SVG Export Plug-In . SVG Version: 6.00 Build 0)  -->
<svg version="1.1" id="圖層_1" xmlns="http://www.w3.org/2000/svg" xmlns:xlink="http://www.w3.org/1999/xlink" x="0px" y="0px"
	 viewBox="0 0 384 235" style="enable-background:new 0 0 384 235;" xml:space="preserve">
<style type="text/css">
	.st0{fill:#FFB745;}
	.st1{fill:#D52110;}
	.st2{fill:#FFFFFF;}
	.st3{fill:#FF8710;}
	.st4{fill:#717172;}
	.st5{fill:#3535C3;}
</style>
<g>
	<path class="st0" d="M307.2,155.8c-10.4,7.5-18.7,7.4-27.1,1.7c-14.4-9.8-28.9-10.4-43.4-0.3c-0.6,0.4-1.3,0.8-1.9,1.2
		c-7.3,4.6-14.5,4.2-21.9,0.2c-4.9-2.7-9.8-5.9-15-7.4c-10-3-19.8-0.9-28.8,5.4c-9.5,6.6-18.6,6.6-28.2,0
		c-13.5-9.2-27.2-8.3-41.1-0.1c-5,2.9-10.9,4.2-16.5,4.7c-3.3,0.3-6.7-2.2-10.8-3.6c5.5-12,57.7-76.1,76.8-79.7
		c27.2-5,54.4-5,81.5,0.3C251.5,82.2,300.7,148.7,307.2,155.8z"/>
	<path class="st1" d="M131.9,201.9c4.5,6.3,9,12.5,14.1,19.7c-9.3-2.4-17-5.7-23.4-11.2c-8.8-7.5-17.6-15.1-26.5-22.6
		c-2-1.7-4.2-3.2-5.9-4.4c9.2-3.1,18.2-6.5,27.5-8.8c3.9-1,9.4-0.6,12.9,1.1c17.7,8.2,35,8.4,52.6-0.2c5.6-2.7,11.6-2.4,17.1,0.3
		c17.1,8.3,34,8.1,51-0.1c5.4-2.6,11-2.3,16.7-0.4c7.9,2.7,15.9,5.3,24.2,8c-0.1,0.1-0.8,1-1.7,1.8c-9.7,8.1-19.6,16-29.1,24.2
		c-6.8,5.9-14.6,9.8-24.5,12.2c4.5-6.2,8.6-11.8,12.6-17.4c-0.4-0.3-0.7-0.6-1.1-0.9c-8.4,8.5-15.2,19-31.1,19
		c2.2-7,4.3-13.6,6.4-20.1c-0.4-0.1-0.8-0.2-1.1-0.4c-2.2,4.1-4.4,8.1-6.6,12.2c-3.4,6.2-8.4,9.7-17.1,8.5c-3.4-0.4-4.7-1.3-4.9-4.1
		c-0.4-5.3-1.2-10.6-3.2-16c-0.7,5.4-1.6,10.7-2.1,16.1c-0.3,2.9-1.9,3.5-5.1,4c-8.8,1.2-13.6-2.6-17-8.7c-2.2-3.9-4.2-7.8-6.2-11.7
		c-0.4,0.1-0.8,0.2-1.3,0.3c2,6.3,4,12.7,6.2,19.5c-7.9,1.1-13.8-2.4-18.9-6.6c-5.1-4.2-9.3-9.3-13.9-14
		C132.4,201.5,132.1,201.7,131.9,201.9z"/>
	<g>
		<path id="XMLID_6_" class="st2" d="M164.6,107.5c-3,6.2-9.4,9.6-14.3,7.7c-4.9-2-6.4-8.6-3.4-14.8c3-6.2,9.4-9.6,14.3-7.7
			C166.2,94.7,167.7,101.3,164.6,107.5z"/>
		<path id="XMLID_5_" class="st2" d="M219.2,107.5c3,6.2,9.4,9.6,14.3,7.7c4.9-2,6.4-8.6,3.4-14.8c-3-6.2-9.4-9.6-14.3-7.7
			C217.7,94.7,216.2,101.3,219.2,107.5z"/>
	</g>
	<path id="XMLID_4_" class="st2" d="M209.9,130.9c-0.1,4.6-8.4,10.2-18.3,9.9c-9.9-0.3-17.8-6.5-17.6-11.1c0.1-4.6,8.1-3.3,18.1-3
		C201.9,127.1,210,126.3,209.9,130.9z"/>
	<path class="st3" d="M190.6,228.3c-12.1,0-24.2,0.1-36.3,0c-15.9-0.2-28.9-5.9-39.5-15.8c-15.3-14.3-31.3-27.9-51.9-36.6
		c-1.4-0.6-3-1.1-4.5-1.6c-5-1.8-7.3-5.6-5.8-9.7c1.6-4.3,5.5-6.4,11-5.3c2.9,0.6,5.9,1.6,8.5,2.9c10.7,5.1,21,5.2,31.9,0.1
		c12-5.7,24.6-5.9,36.8-0.1c10.7,5.1,21.1,5.4,31.9,0.3c13.2-6.3,26.2-5.5,39.2,0.7c9,4.3,18.3,4.4,27.4,0.1
		c14-6.6,27.7-6.7,41.7,0.1c9,4.3,18.3,4,27.5-0.1c3.5-1.6,7.2-3,11-3.9c4.4-1,9.1,1.4,10.5,4.8c1.6,3.7-0.2,8.4-4.6,9.8
		c-20.6,6.9-36.9,19.1-50.8,33c-16.2,16.1-35.5,23.5-60.1,21.7C206.6,227.9,198.6,228.4,190.6,228.3
		C190.6,228.3,190.6,228.3,190.6,228.3z M131.9,201.9c0.3-0.2,0.5-0.4,0.8-0.6c4.6,4.7,8.8,9.8,13.9,14c5.1,4.2,11,7.7,18.9,6.6
		c-2.2-6.9-4.2-13.2-6.2-19.5c0.4-0.1,0.8-0.2,1.3-0.3c2.1,3.9,4.1,7.8,6.2,11.7c3.4,6.1,8.2,9.9,17,8.7c3.3-0.4,4.8-1,5.1-4
		c0.5-5.4,1.3-10.7,2.1-16.1c2,5.3,2.8,10.6,3.2,16c0.2,2.9,1.5,3.7,4.9,4.1c8.7,1.1,13.7-2.4,17.1-8.5c2.2-4,4.4-8.1,6.6-12.2
		c0.4,0.1,0.8,0.2,1.1,0.4c-2.1,6.6-4.1,13.1-6.4,20.1c15.8,0,22.7-10.5,31.1-19c0.4,0.3,0.7,0.6,1.1,0.9
		c-4.1,5.6-8.1,11.2-12.6,17.4c9.9-2.4,17.7-6.4,24.5-12.2c9.5-8.2,19.4-16.1,29.1-24.2c0.9-0.8,1.6-1.7,1.7-1.8
		c-8.3-2.7-16.3-5.3-24.2-8c-5.7-2-11.3-2.3-16.7,0.4c-17,8.2-33.9,8.4-51,0.1c-5.5-2.7-11.5-3-17.1-0.3
		c-17.6,8.6-34.9,8.3-52.6,0.2c-3.6-1.6-9-2.1-12.9-1.1c-9.3,2.3-18.3,5.8-27.5,8.8c1.6,1.2,3.9,2.7,5.9,4.4
		c8.9,7.5,17.7,15,26.5,22.6c6.4,5.5,14.1,8.8,23.4,11.2C140.9,214.5,136.4,208.2,131.9,201.9z"/>
	<g>
		<path class="st4" d="M116.9,68.8c-2.2,0-3.5-1.3-3.6-3.5l0-0.3c0.2-1,0.8-2.3,2.7-3c3.1-1.8,5.2-3,6.3-3.8c1.3-0.9,2.2-1.3,3-1.3
			c0,0,0.2,0,0.2,0c1.1,0,2,0.7,2.3,1.8l0.1,0.4c0,0.9-0.3,1.7-1,2.5c-0.9,1.2-2.2,2.5-4.1,4.2c-2.1,1.8-3.9,2.7-5.5,2.9
			C117.2,68.8,117,68.8,116.9,68.8z M137.3,68.6c-3-0.6-3.4-2.6-3.4-3.7c0.2-7.5,0.7-14.8,1.6-22c0.4-4.6,1-9,1.8-13
			c0.8-2.7,2.1-3.3,3.1-3.3c0.1,0,0.3,0,0.4,0c1,0.1,1.8,0.4,2.3,1c0.6,0.7,0.8,1.6,0.6,2.8c-0.5,4.3-1,9-1.3,13.9
			c-0.6,7.7-0.9,14.3-0.8,19.7c0.2,2.3-1.2,3.9-3.8,4.4L137.3,68.6z M185.8,67.8c-1.4,0-3.1-0.8-5.1-2.4c-1.8-1.3-4-3.2-6.4-5.5
			c-2.5-2.2-4.8-4.6-6.8-7c-2.8-2.9-3.5-4.2-3.7-4.9c-0.5-1.1-0.5-2.2,0.2-3.2c0.3-0.6,1.1-1.5,2.7-1.5c0.2,0,0.4,0,0.6,0
			c0,0,0,0,0,0c0.5,0,1.1,0.3,2,1.1l0.7-0.8l6.9-8.2c1.1-1.5,2.4-2.2,3.7-2.2c0.2,0,0.4,0,0.6,0c1.9,0.3,2.9,1.6,2.8,3.4
			c-0.1,0.9-0.7,1.8-2,3c-1.4,1.6-3,3.5-4.6,5.6c-1.3,1.6-2.3,3-3.1,4c1.2,1.2,2.5,2.4,3.8,3.6c2.7,2.4,5.6,4.6,8.9,6.5
			c2.2,0.7,3.2,2.5,2.8,4.8c-0.4,2.1-1.8,3.4-3.9,3.7L185.8,67.8z M158.2,66.5c-2.5,0-4.6-0.9-6.3-2.8c-1.6-1.8-2.3-4.7-2.2-8.8
			c-0.1-1.8,0.2-4.4,0.8-8c0.6-3.5,1.5-6.2,2.6-8.1c0.8-1.5,1.9-2.3,3.1-2.3c0.2,0,0.5,0,0.7,0.1c1.5,0.4,2.4,1.5,2.5,3.1l0,0.4
			c-0.1,0.5-0.4,1.3-0.9,2.3c-0.5,1-0.9,2.5-1.3,4.5c-0.5,2.1-0.8,4.6-1,7.6c-0.1,3.2,0.4,4.2,0.7,4.5c0.4,0.6,0.8,0.8,1.4,0.8
			c1.3-0.1,2.3-0.5,2.7-1l0.1-0.1c0.9-0.8,1.7-1.2,2.5-1.2c0.2,0,0.3,0,0.5,0.1c1.9,0.2,2.9,1.7,2.6,3.9l0,0.2
			c-0.3,1.3-1.4,2.4-3.2,3.6C161.9,65.9,160.1,66.5,158.2,66.5z M123.9,51.2c-0.1,0-0.3,0-0.4,0c-1.2-0.1-2.5-0.3-3.8-0.8
			c-1.3-0.3-2.6-0.8-3.7-1.4c-1.2-0.6-2.1-1.2-2.8-1.8c-0.8-0.8-1.2-1.7-1.2-2.8l0-0.2c0.3-1.8,1.5-2.8,3.2-2.9c0.1,0,0.2,0,0.3,0
			c1,0,2.2,0.3,3.6,1c1.2,0.6,2.2,1,3.2,1.3c1,0.3,2,0.6,3.1,1.1l0.2,0.1c1.4,0.8,2,2.1,1.8,3.6C126.7,50.3,125.5,51.2,123.9,51.2z
			 M157.1,35.8c-2.1,0-3.4-1.1-3.6-3.1c-0.1-1,0.2-2.5,2.6-3.8l0.2-0.1c1.2-0.4,2.6-0.8,4.2-1.3c1.6-0.4,3.3-0.8,4.9-1.2
			c1.8-0.3,3-0.5,3.8-0.5c3,0.2,3.7,2,3.9,3.1l0,0.2c0.1,2.3-1.2,3.8-3.4,4.2l-0.2,0c-1,0-2.1,0.1-3.4,0.3c-1.3,0.2-2.8,0.5-4.4,0.9
			c-1.5,0.4-2.7,0.7-3.3,0.9l-0.2,0.1C157.8,35.8,157.5,35.8,157.1,35.8z M127.9,35.8c-1.1,0-2.4-0.6-3.9-1.9c-2-1-4.7-2.1-8.2-3.4
			l-0.2-0.1c-1.6-0.9-2.5-1.9-2.9-3l0-0.4c0.1-2.4,1.3-3.8,3.4-4c0.1,0,0.3,0,0.5,0c0.9,0,1.9,0.2,3.2,0.7c3.7,1.3,6.8,2.6,9.2,3.7
			c2.6,1.5,2.8,3.4,2.6,4.7c-0.2,2-1.5,3.3-3.6,3.6L127.9,35.8z M145.4,23.2c-2.1,0-3.5-1.2-3.7-3.2c-0.1-1.1,0.2-2.6,2.7-3.9
			c2.4-0.9,5.1-1.8,8.1-2.7c3-0.9,6.2-1.7,9.4-2.4c3.3-0.7,5.6-1,7-1c3.4,0.3,4.2,2.3,4.5,3.5l0,0.2c0.1,2.6-1.3,4.3-3.8,4.8l-0.2,0
			c-2,0.1-4.4,0.3-7.1,0.8c-2.7,0.4-5.6,1-8.9,1.8c-3.2,0.8-5.5,1.4-6.7,1.9l-0.2,0.1C146.1,23.2,145.7,23.2,145.4,23.2z"/>
		<path class="st4" d="M257.9,75.6c-1.7,0-3-0.1-3.9-0.2l-0.4-0.1c-1.5-0.8-2.3-2.2-2.1-3.8c0.1-0.9,0.6-3,4-3c0.2,0,0.5,0,0.8-0.1
			c0.4-0.1,0.9-0.2,1.5-0.2c2.5-0.9,4-2.9,4.6-6.2c0.6-3.7,0.9-11,0.9-21.8c0.1-2.6,0.1-4.9,0-7c-1.2,0.1-2.4,0.1-3.8,0.2
			c-4.5,0.3-8,0.6-10.4,0.9l-0.1,0c-2.2,0-3.8-0.2-5-0.6c-1.8-0.5-2.3-1.7-2.5-2.6c-0.1-0.5,0-1.1,0.3-1.7c0.6-0.9,1.9-1.4,4-1.8
			c6.4-0.7,12-1.3,16.6-1.7c-0.4-2.1-1-3.7-1.6-4.9l-0.2-0.5c-0.2-3,1.6-3.8,2.5-3.9c0.3-0.1,0.7-0.1,1-0.1c1.3,0,3.1,0.6,4.2,3.4
			c0.6,1.3,1,3.2,1.4,5.7c1.6-0.1,3-0.1,4.3-0.1c1.1,0,2.1,0.1,3.1,0.2c1.1,0.1,2.2,0.6,2.9,1.5c0.7,0.7,1,1.7,0.9,2.9
			c-0.2,2-1.4,3.3-3.2,3.6l-0.2,0c-0.8,0-1.9-0.1-3.4-0.4c-1.2-0.2-2.5-0.3-3.7-0.3c0.2,2.4,0.2,5,0.2,7.8
			c0.1,12.8-0.6,21.3-2.1,25.9c-1.5,4.9-5,7.9-10.2,9L257.9,75.6z M213.4,70.9c-2.6,0-3.7-1.3-4.1-2.4l-0.1-0.4
			c-0.1-0.9,0.2-2.5,2.6-3.3l0.2,0c2-0.4,4-0.8,5.9-1.2c0-0.1,0-0.3,0-0.4c0-1.1,0-2.5,0.1-4.1c-0.3,0-0.5,0-0.8,0.1l-2.7,0
			c-3.1-0.2-4-1.6-4.2-2.7c-0.2-0.8-0.1-2.3,1.7-3.5l0.3-0.1c1.3-0.5,3.3-0.7,6-0.8c0.1-1,0.1-1.9,0.2-2.8c0-0.4,0.1-0.7,0.1-1
			c-2.3,0.2-4.2,0.5-5.5,0.8l-0.3,0c-2.4,0-4.1-0.2-5.4-0.6c-2-0.6-2.6-1.8-2.7-2.8c-0.1-0.5,0-1.2,0.4-1.7c0.6-0.9,2-1.5,4.4-1.9
			c1-0.1,1.9-0.3,2.8-0.4c-0.3-1.2-0.6-3-0.8-5.5c0-2.2,0.2-4.1,0.6-5.6c-2.6,0.3-5.1,0.6-7.2,1c-0.3,0-0.5,0-0.6,0
			c-3.3,0-3.8-2.1-3.9-3.1c0-0.9,0.3-2.4,2.2-3.2c1.7-0.5,3.9-1,6.6-1.4c-0.4-0.4-0.9-0.9-1.7-2c-0.8-1.2-1.4-2.1-1.7-2.9
			c-0.4-1-0.5-1.7-0.5-2.2c0.2-2.1,1.5-3.3,3.6-3.5c0,0,0,0,0,0c1.5,0,2.6,0.6,3.1,1.7c0.6,1.7,1.3,2.8,2.1,3.7
			c0.8,0.7,1.2,1.7,1.2,2.8c0,0.6-0.2,1.1-0.4,1.6c0.6-0.1,1.2-0.1,1.9-0.2c-0.7-0.5-1.2-1.3-1.6-2.6c-0.2-0.9-0.3-1.7-0.4-2.5
			c-0.1-0.7-0.1-1.6-0.1-2.6c-0.1-1,0-2.2,0.2-3.6c0.2-1.4,0.6-2.6,1.1-3.8c0.4-2,1.9-3.1,4.1-3.1l0.3,0c1.8,0.5,2.8,2,2.7,4.1
			l0,0.2c-0.3,1.2-0.6,2.3-0.8,3.4c-0.2,1.2-0.3,2.3-0.2,3.4c0,1.3,0.1,1.9,0.2,2.2c0.1,0.7,0.2,1,0.3,1.1l0.1,0.4
			c0,1.3-0.3,2.2-0.7,2.8c3.2-0.2,6.1-0.4,8.9-0.6c-0.1-0.2-0.2-0.4-0.2-0.5l0-0.2c0-0.2-0.1-0.5,0-0.7c-0.8,0.8-1.6,1-2.2,1
			c-0.1,0-0.2,0-0.3,0c0,0,0,0,0,0c-1.2,0-2.2-0.6-2.6-1.8c-0.4-0.8,0-1.9,0.4-2.8c0.5-1.9,0.8-3.6,0.8-4.9V9.4c0-2,1.1-3.3,3-3.5
			c0.2,0,0.4,0,0.6,0c2.2,0,3.6,1.3,3.6,3.6l0,2.5l0,0.2c-0.3,2-0.7,3.7-1.2,5.1c0.3-0.4,0.5-0.8,0.6-1.2c0.4-1,0.8-2.2,1.1-3.7
			l0.1-0.3c0.7-1.4,1.9-2.2,3.5-2.2l0.3,0c2.5,0.5,3.7,2.3,3.3,4.8c-0.5,2-1.5,3.8-3,5.6c-0.5,0.6-1,1.1-1.5,1.5c1,0,2,0,2.9,0
			c2.2,0.3,3.5,1.6,3.8,3.9l0,0.4c-0.4,1.9-1.8,3.1-3.8,3.3c-1.5,0-3,0-4.5,0.1c0.3,1.2,0.4,2.8,0.4,4.7c-0.1,2.1-0.8,4.1-2.1,6
			c0.5,0,0.9,0.1,1.4,0.1c1.1,0.1,2.2,0.6,2.9,1.5c0.7,0.7,1,1.7,0.9,2.9c-0.2,2-1.3,3.2-3.1,3.6l-0.2,0c-0.8,0-2-0.1-3.4-0.4
			c-1.3-0.2-2.6-0.3-3.9-0.3c-0.9,0-1.8,0-2.9,0.1c0,0.4-0.1,0.9-0.2,1.5c0,0.6-0.1,1.6-0.2,3c2.1,0,3.8,0.2,4.9,0.5l0.2,0.1
			c1.3,0.6,2,1.8,2,3.2c-0.2,2.3-1.5,3.5-3.7,3.5c0,0-0.3,0-0.3,0c-1.1,0-2.2,0-3.4,0c0,1,0.1,1.9,0.2,2.7c1.9-0.5,3.2-0.8,4.2-1
			c0.3,0,0.6-0.1,0.8-0.1c2.2,0,3,1.3,3.3,2.1l0.1,0.3c0.2,1.8-0.7,3.1-2.5,3.8c-1.4,0.4-2.9,0.9-4.7,1.4c-1.8,0.4-3.8,0.9-6.2,1.4
			c-2.4,0.5-4.5,0.9-6.2,1.1L213.4,70.9z M219.3,30.2l-0.1,0.4c-0.7,1.9-1,3.7-1,5.3c0.1,1.4,0.3,2.1,0.5,2.5
			c0.4,0.8,0.6,1.6,0.7,2.3c0,0,0,0.1,0,0.1c2.4-0.3,4.6-0.5,6.5-0.6c0.1-0.7,0.4-1.4,0.8-2c1-1.5,1.6-3,1.7-4.4
			c0-1.1-0.1-2.4-0.4-4l0-0.2c0,0,0-0.1,0-0.1c-2,0.1-4.2,0.2-6.3,0.3c-0.8,0.1-1.6,0.1-2.4,0.2C219.3,30.1,219.3,30.2,219.3,30.2z
			 M253.2,53c-1-0.1-1.9-0.6-2.8-1.4c-1.1-0.8-2.2-1.9-3.3-2.9c-1.4-1.1-1.6-2.3-1.6-3.1c0.1-0.9,0.4-2.2,2.4-2.8l0.2,0
			c0.2,0,0.3,0,0.5,0c0.9,0,1.9,0.4,2.9,1.3c1.4,0.9,2.6,1.7,3.7,2.4c2,1.4,1.9,3,1.6,3.9c-0.3,1.5-1.5,2.6-3.3,2.8L253.2,53z"/>
	</g>
	<g>
		<g>
			<path class="st0" d="M39.1,104.4c3.7-0.8,7.5-0.2,8.5,1.5c0.2,0.4,0,0.8-0.4,1.2c-3.6,3.9-4.2,7.9-2.2,11.5l11.5,20.8
				c2,3.5,6.4,6.5,13.1,8.1c0.8,0.2,1.4,0.4,1.6,0.8c0.9,1.7-1.4,3.7-5.1,4.5c-2.3,0.5-4.7,0.5-6.3-0.1c-0.7,0.6-1.9,1.2-3.3,1.5
				c-2.9,0.7-5.9,0.1-6.7-1.2c-0.1-0.2-0.1-0.5,0.1-0.8c1.9-3.1,2.5-6.1,1-8.9l-14.2-25.6c-1.5-2.7-5-4.9-9.5-6.5
				c-0.4-0.1-0.7-0.3-0.8-0.6c-0.7-1.3,1.1-2.9,4-3.6c1.4-0.3,2.9-0.4,4.1-0.2C35,105.9,36.8,104.9,39.1,104.4z"/>
			<path class="st0" d="M39.1,104.4c3.7-0.8,7.5-0.2,8.5,1.5c-6.6,0.1-7.8,1.8-8.2,2.3c-3.6,3.9-0.5,7.8,1.4,11.4l11.5,20.8
				c2,3.5,2.2,8.6,8.9,10.1c0.8,0.2,5.7,1.4,9.9-2.2c0.9,1.7-1.4,3.7-5.1,4.5c-2.3,0.5-8.2,1.1-9.7,1.4c-2.9,0.7-5.9,0.1-6.7-1.2
				c-0.1-0.2-0.1-0.5,0.1-0.8c1.9-3.1,2.5-6.1,1-8.9l-14.2-25.6c-1.5-2.7-5-4.9-9.5-6.5c-0.4-0.1-0.7-0.3-0.8-0.6
				c-0.7-1.3,1.1-2.9,4-3.6C31.6,106.8,36.8,104.9,39.1,104.4z"/>
		</g>
		<path class="st0" d="M46.7,97c6.9-0.6,13.8-1.3,20.8-1.7c4.8-0.2,10.5,1.8,10.9,5.2c0.1,0.6-0.9,0.9-2,0.8
			c-3-0.4-8.8-1.2-10.5-1.3c-6.1-0.6-15-1.8-18.2,1.3c-0.9,0.8-3.2,0.6-4.3-0.3c-2.7-2.2-1.2-3.6,3-4C46.5,97,46.6,97,46.7,97z"/>
		<path class="st0" d="M12.7,71c2.4,0.4,5,0.3,6.2,0c2.3-0.5,4.3,0.9,3.5,1.9c-2.3,3-0.2,6.6,2.3,9.7c3.2,4,7.1,7.9,11.9,11.6
			c1.2,0.9,2.9,1.9,3.1,3c0.3,1.5-5,0.9-6.9,1c-0.9,0-2,0-2.7-0.4c-1.3-0.6-0.9-1.9-1.1-2.6c-1-3.3-4.4-6.6-7-9.7
			c-3.5-4.2-6.7-8.3-11.2-12.3C9.6,72.2,9.3,70.5,12.7,71z"/>
		<path class="st0" d="M28.6,70.1c2.2,0.7,4.9,1.1,6.2,1c2.6-0.1,3.8,1.5,2.4,2.3c-4,2.3-4.1,5.9-3.6,9.1c0.7,4.1,2.4,8.3,4.9,12.4
			c0.6,1,1.7,2.2,1.3,3.2c-0.6,1.4-5.5,0-7.5-0.2c-1-0.1-2-0.3-2.5-0.8c-0.9-0.8,0.3-1.8,0.5-2.5c1-3.1-0.4-6.6-1.1-9.8
			c-1-4.3-1.7-8.5-3.8-12.9C24.8,70.7,25.5,69.1,28.6,70.1z"/>
		<path class="st0" d="M45.2,71.8c1.8,1,4.2,1.7,5.6,1.9c2.7,0.3,2.9,2,1,2.5c-5.5,1.4-7.7,4.6-9.1,7.6c-1.8,3.8-2.6,7.8-2.6,11.9
			c0,1,0.4,2.2-0.6,3.1c-1.4,1.1-5.6-0.8-7.4-1.4c-0.9-0.2-1.8-0.6-2-1.1c-0.4-0.8,1.4-1.6,2-2.2c2.9-2.6,3.6-6,4.8-9
			c1.6-4,3.5-8,4-12.2C40.9,71.7,42.6,70.4,45.2,71.8z"/>
		<path class="st0" d="M60.7,76c1.2,1.2,3.2,2.2,4.5,2.6c2.5,0.7,1.7,2.2-0.5,2.4c-6.3,0.4-10.5,2.9-13.7,5.4
			c-4.1,3.2-7.4,6.6-9.8,10.3c-0.6,0.9-0.9,2.1-2.5,2.7c-2.1,0.8-6.1-0.3-7.7-1.1c-0.7-0.4-0.4-2.2-0.3-2.6c0.1-0.8,2.3-1.2,3.4-1.7
			c4.5-1.9,7.2-4.8,10.3-7.4c4.1-3.4,8.3-6.6,11.4-10.3C56.5,75.2,59,74.3,60.7,76z"/>
		<path class="st0" d="M10.3,63.7c0-0.2,0-0.4,0.1-0.5c0.1-1.3,0.5-6.2,5.3-4.2c1.9,0.8,1.8,2.2,1.7,3.2c-0.1,1.5-0.5,3.1,0.6,4.6
			c0.3,0.4,0,0.8-0.6,1c-0.5,0.2-1.2,0.3-1.9,0.4c-0.5,0.1-0.9,0.1-1.5,0.1C10.3,68,10.1,65.3,10.3,63.7z"/>
		<path class="st0" d="M11.5,56.1c0.4-0.8,1.3-1.5,1.9-2.2c0.4-0.5,2.1-0.8,3-0.1c0.6,0.4,1.3,1.4,1.4,1.5c0.4,0.8,1,1.9,0.2,2.6
			c-0.9,0.8-2.7,0.4-4.2,0.1C12.3,57.6,11.1,56.9,11.5,56.1z"/>
		<path class="st0" d="M25.8,62.9c0.1-0.2,0.2-0.4,0.3-0.6c0.8-1.4,3.8-6.8,8.5-4c1.9,1.1,1.1,2.7,0.4,3.8c-0.9,1.6-2.2,3.3-1.6,5.2
			c0.1,0.5-0.4,0.9-1.2,1c-0.7,0.2-1.7,0.2-2.5,0.2c-0.6,0-1.2,0-1.8-0.1C23.6,67.7,24.9,64.6,25.8,62.9z"/>
		<path class="st0" d="M31.1,54.6c0.8-0.8,2.3-1.5,3.4-2.2c0.8-0.5,2.9-0.6,3.7,0.3c0.5,0.6,0.9,1.7,0.9,1.8c0.1,0.9,0.2,2.3-1,2.9
			c-1.4,0.7-3.4,0.1-5.1-0.4C31.3,56.4,30.3,55.5,31.1,54.6z"/>
		<path class="st0" d="M40.4,62.8c0.2-0.2,0.5-0.4,0.7-0.6c1.7-1.4,8-6.8,12-3.1c1.6,1.5-0.2,3.1-1.5,4.2c-1.9,1.6-4.3,3.3-4.6,5.4
			c-0.1,0.5-0.9,0.9-1.9,1c-1,0.1-2,0-3.1-0.1c-0.7-0.1-1.4-0.1-2-0.3C35.4,67.7,38.4,64.5,40.4,62.8z"/>
		<path class="st0" d="M51,54.6c1.4-0.7,3.5-1.3,5.1-1.9c1.2-0.4,3.8-0.3,4.2,0.8c0.3,0.7,0.3,1.3,0.1,1.8c0,0.1,0.1,0.2,0,0.3
			c-0.3,1-1,2.5-2.7,3c-2,0.6-4.1-0.3-5.8-1.1C50.2,56.6,49.5,55.4,51,54.6z"/>
		<path class="st0" d="M58.8,66.6c0.2-0.2,0.5-0.3,0.6-0.4c1.6-1.1,7.7-5.5,10.7-2.2c1.2,1.3-0.6,2.6-1.8,3.4
			c-1.9,1.3-4.1,2.6-4.6,4.3c-0.1,0.4-0.9,0.7-1.8,0.7s-1.8-0.1-2.6-0.2c-0.6-0.1-1.2-0.2-1.7-0.4C53.9,70.5,56.9,68,58.8,66.6z"/>
		<path class="st0" d="M69,60.1c1.3-0.6,3.1-1,4.6-1.4c1.1-0.3,3.3-0.1,3.5,0.8c0.1,0.6,0.1,1.1-0.2,1.5c0,0.1,0,0.1,0,0.2
			c-0.4,0.8-1.2,2-2.7,2.4c-1.8,0.4-3.5-0.4-4.8-1.2C68.1,61.7,67.6,60.7,69,60.1z"/>
	</g>
	<g>
		<ellipse transform="matrix(0.3913 -0.9202 0.9202 0.3913 -2.5052 107.7745)" class="st5" cx="80.2" cy="55.8" rx="3.7" ry="3.9"/>
		<ellipse transform="matrix(0.3913 -0.9202 0.9202 0.3913 -20.5407 64.4135)" class="st5" cx="38.4" cy="47.7" rx="3.7" ry="3.9"/>
		<ellipse transform="matrix(0.3913 -0.9202 0.9202 0.3913 -35.6232 44.2512)" class="st5" cx="15.6" cy="49.1" rx="3.3" ry="3.1"/>
		
			<ellipse transform="matrix(0.3913 -0.9202 0.9202 0.3913 -42.6927 137.1382)" class="st5" cx="82.3" cy="100.8" rx="2.4" ry="2.8"/>
		<ellipse transform="matrix(0.3913 -0.9202 0.9202 0.3913 -6.661 87.3744)" class="st5" cx="62.7" cy="48.7" rx="4.3" ry="4.3"/>
	</g>
	<g>
		<g>
			<path class="st0" d="M343.4,106.4c-3.7-0.8-7.5-0.2-8.5,1.5c-0.2,0.4,0,0.8,0.4,1.2c3.6,3.9,4.2,7.9,2.2,11.5L326,141.4
				c-2,3.5-6.4,6.5-13.1,8.1c-0.8,0.2-1.4,0.4-1.6,0.8c-0.9,1.7,1.4,3.7,5.1,4.5c2.3,0.5,4.7,0.5,6.3-0.1c0.7,0.6,1.9,1.2,3.3,1.5
				c2.9,0.7,5.9,0.1,6.7-1.2c0.1-0.2,0.1-0.5-0.1-0.8c-1.9-3.1-2.5-6.1-1-8.9l14.2-25.6c1.5-2.7,5-4.9,9.5-6.5
				c0.4-0.1,0.7-0.3,0.8-0.6c0.7-1.3-1.1-2.9-4-3.6c-1.4-0.3-2.9-0.4-4.1-0.2C347.4,107.8,345.7,106.9,343.4,106.4z"/>
			<path class="st0" d="M343.4,106.4c-3.7-0.8-7.5-0.2-8.5,1.5c6.6,0.1,7.8,1.8,8.2,2.3c3.6,3.9,0.5,7.8-1.4,11.4l-11.5,20.8
				c-2,3.5-2.2,8.6-8.9,10.1c-0.8,0.2-5.7,1.4-9.9-2.2c-0.9,1.7,1.4,3.7,5.1,4.5c2.3,0.5,8.2,1.1,9.7,1.4c2.9,0.7,5.9,0.1,6.7-1.2
				c0.1-0.2,0.1-0.5-0.1-0.8c-1.9-3.1-2.5-6.1-1-8.9l14.2-25.6c1.5-2.7,5-4.9,9.5-6.5c0.4-0.1,0.7-0.3,0.8-0.6
				c0.7-1.3-1.1-2.9-4-3.6C350.9,108.7,345.7,106.9,343.4,106.4z"/>
		</g>
		<path class="st0" d="M335.7,98.9c-6.9-0.6-13.8-1.3-20.8-1.7c-4.8-0.2-10.5,1.8-10.9,5.2c-0.1,0.6,0.9,0.9,2,0.8
			c3-0.4,8.8-1.2,10.5-1.3c6.1-0.6,15-1.8,18.2,1.3c0.9,0.8,3.2,0.6,4.3-0.3c2.7-2.2,1.2-3.6-3-4C336,98.9,335.8,98.9,335.7,98.9z"
			/>
		<path class="st0" d="M369.7,73c-2.4,0.4-5,0.3-6.2,0c-2.3-0.5-4.3,0.9-3.5,1.9c2.3,3,0.2,6.6-2.3,9.7c-3.2,4-7.1,7.9-11.9,11.6
			c-1.2,0.9-2.9,1.9-3.1,3c-0.3,1.5,5,0.9,6.9,1c0.9,0,2,0,2.7-0.4c1.3-0.6,0.9-1.9,1.1-2.6c1-3.3,4.4-6.6,7-9.7
			c3.5-4.2,6.7-8.3,11.2-12.3C372.9,74.2,373.2,72.4,369.7,73z"/>
		<path class="st0" d="M353.8,72c-2.2,0.7-4.9,1.1-6.2,1c-2.6-0.1-3.8,1.5-2.4,2.3c4,2.3,4.1,5.9,3.6,9.1c-0.7,4.1-2.4,8.3-4.9,12.4
			c-0.6,1-1.7,2.2-1.3,3.2c0.6,1.4,5.5,0,7.5-0.2c1-0.1,2-0.3,2.5-0.8c0.9-0.8-0.3-1.8-0.5-2.5c-1-3.1,0.4-6.6,1.1-9.8
			c1-4.3,1.7-8.5,3.8-12.9C357.7,72.6,357,71,353.8,72z"/>
		<path class="st0" d="M337.3,73.7c-1.8,1-4.2,1.7-5.6,1.9c-2.7,0.3-2.9,2-1,2.5c5.5,1.4,7.7,4.6,9.1,7.6c1.8,3.8,2.6,7.8,2.6,11.9
			c0,1-0.4,2.2,0.6,3.1c1.4,1.1,5.6-0.8,7.4-1.4c0.9-0.2,1.8-0.6,2-1.1c0.4-0.8-1.4-1.6-2-2.2c-2.9-2.6-3.6-6-4.8-9
			c-1.6-4-3.5-8-4-12.2C341.5,73.6,339.8,72.3,337.3,73.7z"/>
		<path class="st0" d="M321.7,77.9c-1.2,1.2-3.2,2.2-4.5,2.6c-2.5,0.7-1.7,2.2,0.5,2.4c6.3,0.4,10.5,2.9,13.7,5.4
			c4.1,3.2,7.4,6.6,9.8,10.3c0.6,0.9,0.9,2.1,2.5,2.7c2.1,0.8,6.1-0.3,7.7-1.1c0.7-0.4,0.4-2.2,0.3-2.6c-0.1-0.8-2.3-1.2-3.4-1.7
			c-4.5-1.9-7.2-4.8-10.3-7.4c-4.1-3.4-8.3-6.6-11.4-10.3C325.9,77.1,323.4,76.2,321.7,77.9z"/>
		<path class="st0" d="M372.2,65.6c0-0.2,0-0.4-0.1-0.5c-0.1-1.3-0.5-6.2-5.3-4.2c-1.9,0.8-1.8,2.2-1.7,3.2c0.1,1.5,0.5,3.1-0.6,4.6
			c-0.3,0.4,0,0.8,0.6,1c0.5,0.2,1.2,0.3,1.9,0.4c0.5,0.1,0.9,0.1,1.5,0.1C372.2,70,372.3,67.2,372.2,65.6z"/>
		<path class="st0" d="M370.9,58c-0.4-0.8-1.3-1.5-1.9-2.2c-0.4-0.5-2.1-0.8-3-0.1c-0.6,0.4-1.3,1.4-1.4,1.5c-0.4,0.8-1,1.9-0.2,2.6
			c0.9,0.8,2.7,0.4,4.2,0.1C370.1,59.6,371.3,58.8,370.9,58z"/>
		<path class="st0" d="M356.7,64.8c-0.1-0.2-0.2-0.4-0.3-0.6c-0.8-1.4-3.8-6.8-8.5-4c-1.9,1.1-1.1,2.7-0.4,3.8
			c0.9,1.6,2.2,3.3,1.6,5.2c-0.1,0.5,0.4,0.9,1.2,1c0.7,0.2,1.7,0.2,2.5,0.2c0.6,0,1.2,0,1.8-0.1C358.8,69.6,357.6,66.5,356.7,64.8z
			"/>
		<path class="st0" d="M351.3,56.6c-0.8-0.8-2.3-1.5-3.4-2.2c-0.8-0.5-2.9-0.6-3.7,0.3c-0.5,0.6-0.9,1.7-0.9,1.8
			c-0.1,0.9-0.2,2.3,1,2.9c1.4,0.7,3.4,0.1,5.1-0.4C351.2,58.4,352.2,57.4,351.3,56.6z"/>
		<path class="st0" d="M342,64.7c-0.2-0.2-0.5-0.4-0.7-0.6c-1.7-1.4-8-6.8-12-3.1c-1.6,1.5,0.2,3.1,1.5,4.2c1.9,1.6,4.3,3.3,4.6,5.4
			c0.1,0.5,0.9,0.9,1.9,1c1,0.1,2,0,3.1-0.1c0.7-0.1,1.4-0.1,2-0.3C347.1,69.6,344,66.4,342,64.7z"/>
		<path class="st0" d="M331.5,56.5c-1.4-0.7-3.5-1.3-5.1-1.9c-1.2-0.4-3.8-0.3-4.2,0.8c-0.3,0.7-0.3,1.3-0.1,1.8
			c0,0.1-0.1,0.2,0,0.3c0.3,1,1,2.5,2.7,3c2,0.6,4.1-0.3,5.8-1.1C332.2,58.5,332.9,57.3,331.5,56.5z"/>
		<path class="st0" d="M323.6,68.5c-0.2-0.2-0.5-0.3-0.6-0.4c-1.6-1.1-7.7-5.5-10.7-2.2c-1.2,1.3,0.6,2.6,1.8,3.4
			c1.9,1.3,4.1,2.6,4.6,4.3c0.1,0.4,0.9,0.7,1.8,0.7c0.9,0.1,1.8-0.1,2.6-0.2c0.6-0.1,1.2-0.2,1.7-0.4
			C328.6,72.5,325.6,69.9,323.6,68.5z"/>
		<path class="st0" d="M313.5,62c-1.3-0.6-3.1-1-4.6-1.4c-1.1-0.3-3.3-0.1-3.5,0.8c-0.1,0.6-0.1,1.1,0.2,1.5c0,0.1,0,0.1,0,0.2
			c0.4,0.8,1.2,2,2.7,2.4c1.8,0.4,3.5-0.4,4.8-1.2C314.4,63.7,314.8,62.7,313.5,62z"/>
	</g>
	<g>
		<ellipse transform="matrix(0.9202 -0.3913 0.3913 0.9202 2.7424 123.2124)" class="st5" cx="303.7" cy="54.9" rx="3.9" ry="3.7"/>
		<ellipse transform="matrix(0.9202 -0.3913 0.3913 0.9202 9.2246 138.927)" class="st5" cx="345.5" cy="46.8" rx="3.9" ry="3.7"/>
		
			<ellipse transform="matrix(0.9202 -0.3913 0.3913 0.9202 10.5248 147.9481)" class="st5" cx="368.2" cy="48.2" rx="3.1" ry="3.3"/>
		
			<ellipse transform="matrix(0.9202 -0.3913 0.3913 0.9202 -15.0595 125.9828)" class="st5" cx="301.6" cy="99.9" rx="2.8" ry="2.4"/>
		<ellipse transform="matrix(0.9202 -0.3913 0.3913 0.9202 6.9002 129.4976)" class="st5" cx="321.2" cy="47.8" rx="4.3" ry="4.3"/>
	</g>
</g>
</svg>
