<?xml version="1.0" encoding="utf-8"?>
<!-- Generator: Adobe Illustrator 21.1.0, SVG Export Plug-In . SVG Version: 6.00 Build 0)  -->
<svg version="1.1" xmlns="http://www.w3.org/2000/svg" xmlns:xlink="http://www.w3.org/1999/xlink" x="0px" y="0px"
	 viewBox="0 0 384 235" style="enable-background:new 0 0 384 235;" xml:space="preserve">
<style type="text/css">
	.st0{display:none;}
	.st1{display:inline;fill:#FF8710;}
	.st2{fill:#FFFFFF;}
	.st3{fill:#FFB745;}
	.st4{fill:#D52110;}
	.st5{fill:#FF8710;}
	.st6{fill:#090C7B;}
</style>
<g id="圖層_2" class="st0">
	<rect x="-30.5" y="-29.1" class="st1" width="459.5" height="302"/>
</g>
<g id="圖層_1">
	<g>
		<path class="st2" d="M132.5,60.4c-0.8-2.3-2.6-3.7-5-3.7h-0.2c-1.3,0-2.7,0.5-4.5,1.8c-0.8,0.5-2.5,1.5-5.8,3.4
			c-2.2,0.9-3.7,2.7-4.1,4.9c0,0.2-0.1,0.4-0.1,0.6c0,0,0,0.3,0,0.3c0.2,3.5,2.6,6,6.1,6.1c0.3,0.1,0.5,0.1,0.8,0.1
			c0.1,0,0.2,0,0.4,0c2.1-0.3,4.4-1.4,6.8-3.4c1.9-1.6,3.4-3.1,4.4-4.5c1-1.2,1.5-2.7,1.5-4.1c0-0.2,0-0.5-0.1-0.7l-0.1-0.4
			C132.5,60.5,132.5,60.5,132.5,60.4z"/>
		<path class="st2" d="M175.3,36.8L175.3,36.8c0.8-1.1,1.2-2.6,1.1-4.1v-0.1c0-0.2,0-0.4-0.1-0.6c-0.6-3.1-3-5-6.4-5.3
			c-0.1,0-0.1,0-0.2,0c-0.9,0-2.2,0.2-4.2,0.6c-1.6,0.3-3.2,0.7-4.8,1.1c-1.5,0.4-2.8,0.8-4.3,1.3c-0.1,0-0.2,0.1-0.4,0.2l-0.2,0.1
			c-3.8,2-4.2,4.9-4,6.4c0.1,1,0.4,2,0.9,2.7c-0.3,0.4-0.7,0.9-1,1.4c-1.3,2.2-2.2,5-2.8,8.8c-0.7,4-0.9,6.4-0.8,8.2
			c-0.2,4.6,0.7,8,2.8,10.4c2.1,2.4,5,3.7,8.2,3.7c2.4,0,4.7-0.6,6.7-1.9c3-1.7,4.1-3.7,4.4-5.2c0.1-0.2,0.1-0.5,0.1-0.7v0
			c0.1-0.6,0.1-1.2,0-1.7c0.8,0.8,1.7,1.7,2.5,2.4c2.4,2.2,4.5,4.1,6.4,5.5c2.5,2,4.6,2.9,6.6,2.9c0.5,0,1-0.1,1.4-0.4
			c2.8-0.6,4.7-2.6,5.3-5.7c0.6-3.5-1.1-6.5-4.3-7.8c-2.9-1.7-5.6-3.7-7.9-5.8c0,0-0.1-0.1-0.1-0.1c-0.6-0.5-1.2-1-1.8-1.5
			c0.4-0.6,0.9-1.2,1.5-1.8c0.9-1.1,1.8-2.2,2.6-3.1c0.6-0.7,1.2-1.5,1.8-2.1c1.2-1.2,2.4-2.6,2.6-4.5c0.4-3.3-1.7-5.9-5.1-6.4
			c-0.1,0-0.3,0-0.4,0h-0.5C178.9,33.6,177,34.7,175.3,36.8z M169.5,43.7c-0.4-0.2-0.9-0.2-1.4-0.2h-0.5c-2.6,0-4.3,1.5-5.1,2.9
			c-1,1.7-1.1,3.5-0.5,5.3c0.3,1.4,1.4,3,3.7,5.4c-0.4-0.1-0.8-0.1-1.1-0.1c-1.5,0-2.9,0.6-4.4,1.9c0,0,0,0,0,0c0-0.4-0.1-1,0-1.8
			c0.2-2.2,0.5-4.6,0.9-6.9c0.4-1.8,0.7-2.9,1.1-3.6c0,0,0-0.1,0.1-0.1c0.5-1.2,0.8-2.1,1-2.8c0-0.2,0.1-0.4,0.1-0.6v-0.4
			c0-0.1,0-0.1,0-0.2c0-0.6-0.2-1.2-0.3-1.8c0.1,0,0.2,0,0.2-0.1c0.5-0.1,1-0.2,1.4-0.3c1-0.2,1.8-0.4,2.7-0.5
			c1.1-0.2,2.1-0.3,2.9-0.3h0.2c0.2,0,0.3,0,0.5,0c1.5-0.3,2.8-0.9,3.7-1.8L169.5,43.7z"/>
		<path class="st2" d="M116.5,36.2c0.2,0.2,0.4,0.3,0.7,0.4c2.6,1,5.4,2.2,7.4,3.1c1.4,1.1,3.2,2.2,5.3,2.2h0.2c0.1,0,0.3,0,0.4,0
			c2-0.3,3.6-1.2,4.6-2.6c-0.3,2.2-0.5,4.3-0.7,6.5c-0.8,6.9-1.3,14.2-1.5,21.6c0,2.5,1.5,5.4,5.6,6.3c0.2,0,0.4,0.1,0.6,0.1h0.4
			c0.2,0,0.4,0,0.6-0.1c3.9-0.8,6.1-3.5,6-7.1c-0.1-4.8,0.2-11,0.8-18.8c0.4-4.4,0.8-9.1,1.3-13.5c0.1-1.2,0.1-3-1-4.5
			c0.4,0,1.1,0,1.7-0.2c0.1,0,0.3-0.1,0.4-0.2l0,0c1.1-0.4,3.1-0.9,6.1-1.7c2.9-0.8,5.7-1.3,8.3-1.7c2.2-0.3,4.3-0.6,6.5-0.7h0.1
			c0.1,0,0.3,0,0.4,0c3.8-0.6,6.2-3.5,6.1-7.5v-0.1c0-0.2,0-0.3,0-0.5c-0.5-2.5-2.5-5.3-6.8-5.7c-0.1,0-0.2,0-0.3,0
			c-1.6,0-3.9,0.4-7.3,1.1c-3.1,0.6-6.2,1.4-9.3,2.4c-2.7,0.7-5.4,1.6-8.1,2.7c-0.1,0-0.2,0.1-0.2,0.1c-4.1,2.1-4.3,5.2-4.2,6.5
			c0.1,1.3,0.6,2.5,1.3,3.4c-1.4,0.1-4.3,0.7-5.5,5.2c-0.5-1.5-1.7-3-3.7-4.2c-0.1,0-0.1-0.1-0.2-0.1c-2.3-1.1-5.3-2.3-9.1-3.7
			c-1.6-0.6-2.9-0.9-4.1-0.9h-0.5c-0.1,0-0.2,0-0.3,0c-3.4,0.3-5.7,2.9-5.9,6.6c0,0,0,0.5,0,0.5c0,0.3,0,0.5,0.1,0.7
			C112.9,32.9,113.9,34.7,116.5,36.2z"/>
		<path class="st2" d="M117,54.4C117.1,54.5,117.1,54.5,117,54.4c1.2,0.6,2.6,1.1,4.1,1.5c1.4,0.4,2.7,0.7,4.2,0.8
			c0.1,0,0.2,0,0.2,0h0.4c2.8,0,5.1-1.7,6.1-4.5c0.1-0.2,0.1-0.4,0.1-0.6c0.3-2.6-0.8-4.9-3-6.3c-0.1,0-0.1-0.1-0.2-0.1l-0.2-0.1
			c-0.1,0-0.1-0.1-0.2-0.1c-0.8-0.3-1.6-0.6-2.3-0.8c-0.3-0.1-0.6-0.2-0.9-0.3c-0.7-0.2-1.8-0.7-2.8-1.2c-1.8-0.9-3.3-1.3-4.7-1.3
			c0,0-0.4,0-0.5,0c-3,0.2-5.2,2.1-5.7,5.1c0,0.2,0,0.3,0,0.5v0.2c0,1.7,0.7,3.4,1.9,4.6C114.5,53.1,115.7,53.8,117,54.4z"/>
		<path class="st2" d="M251.3,58.4h0.4c0.1,0,0.2,0,0.3,0c2.9-0.3,5.1-2.2,5.6-4.9c0.8-3.8-1.4-5.9-2.8-6.8
			c-0.4-0.2-0.8-0.5-1.2-0.8c-0.8-0.5-1.5-1-2.4-1.5c-1-0.7-2.6-1.7-4.5-1.7h-0.7c-0.3,0-0.6,0-0.9,0.1c-1.4,0.4-3.8,1.7-4.3,5.1
			c0,0.1,0,0.2,0,0.4c0,1.3,0.4,3.3,2.6,5.1c1,0.9,2.1,1.9,3.1,2.7c1.2,1.3,2.7,2,4.4,2.1C251.1,58.4,251.2,58.4,251.3,58.4z"/>
		<path class="st2" d="M369.3,74.5c-0.2-0.4-0.5-1.1-1.3-1.6c1-1.3,1.5-3,1.4-5v-0.4c0-0.1,0-0.1,0-0.2c-0.2-2.3-0.8-3.8-1.5-4.9
			c0.4-1,0.4-2.1,0-3.1c0,0,0-0.1-0.1-0.1c-0.4-0.8-1.1-1.5-1.6-2.1c-0.2-0.2-0.3-0.4-0.4-0.4c-0.1-0.1-0.1-0.1-0.2-0.2
			c1.3-0.7,2.3-1.7,2.8-3.1c0.5-1.5,0.5-3.1-0.1-4.5c-1-2.3-3.1-3.7-5.5-3.7c-0.8,0-1.5,0.2-2.2,0.5c-1.5,0.6-2.6,1.8-3.1,3.3
			c-0.5,1.5-0.5,3.1,0.1,4.5c0.4,1,1,1.8,1.8,2.4c-0.1,0.1-0.3,0.1-0.4,0.2c-0.9,0.6-1.7,1.7-2,2.1c0,0.1-0.1,0.1-0.1,0.2
			c-2,3.4-0.3,5.4,0.3,6c-0.2,0.7-0.3,1.5-0.2,2.5c0,0.2,0,0.5,0.1,0.7c0.1,1.1,0.1,1.5-0.1,1.8c-0.6,0.9-0.8,1.9-0.6,2.9
			c0,0,0,0,0,0c-0.7,0.1-1.3,0.3-1.9,0.6c0.1-0.2,0.2-0.4,0.3-0.6c1.2-2.6-0.2-5.3-0.7-6.3c-0.1-0.2-0.3-0.5-0.5-0.8
			c-0.6-1.1-2-3.3-4.1-4.7c0.2-1.2-0.2-2.4-1-3.2c-1-1-2.3-1.7-3.5-2.4l-0.1-0.1c0.9-0.7,1.6-1.5,2-2.5c0.7-1.6,0.7-3.4,0-5
			c-1-2.4-3.3-3.9-6-3.9c-0.9,0-1.8,0.2-2.7,0.5c-1.6,0.7-2.9,1.9-3.5,3.5c-0.7,1.6-0.7,3.4,0,5c0.6,1.3,1.6,2.4,2.8,3
			c-0.8,0.9-1.4,2.4-1.6,3.3l0,0c-0.2,1.6,0,2.9,0.6,3.9c-2-1.4-3.9-2.4-5.7-2.9c-0.1-0.8-0.5-2.3-2.4-3.2c-1.2-0.6-2.5-1.1-3.8-1.5
			c-0.5-0.2-0.9-0.3-1.3-0.5c0,0-0.1,0-0.1,0c-0.1,0-0.1,0-0.2,0c1.3-1.9,1.6-4.3,0.6-6.6c-1.1-2.6-3.6-4.2-6.4-4.2
			c-0.9,0-1.8,0.2-2.7,0.6c-3.5,1.5-5.2,5.6-3.7,9.1c0.8,2,2.5,3.4,4.6,4c-0.3,0.9-0.4,1.9-0.2,2.9c0,0.3,0.1,0.5,0.1,0.8
			c0.8,2.5,2.3,4.1,4.5,4.7c0.7,0.2,1.4,0.3,2.2,0.3c0,0,0,0,0.1,0c0.6,1.8,2,3,2.7,3.6c0.3,0.3,0.7,0.6,1,0.9
			c0.9,0.8,2.4,2,2.5,2.7c0,0,0,0.1,0,0.1c0.1,0.3,0.2,0.7,0.4,1.1c-0.6,0.2-1.1,0.3-1.5,0.3c0,0-0.1,0-0.1,0
			c-0.7,0.1-1.4,0.3-1.9,0.5c0-0.1,0.1-0.3,0.1-0.4c0.4-2.9-2.3-5-3.9-6.2c-0.4-0.3-0.7-0.5-1-0.7c-2-1.4-4.5-2.9-7.2-3.5
			c-0.2-0.8-0.8-1.9-2.3-2.6c-1-0.5-2.1-0.8-3.2-1c-0.5-0.1-1.1-0.3-1.6-0.5c0,0,0,0,0,0c0.1-0.1,0.1-0.2,0.2-0.4
			c0.7-1.6,0.7-3.4,0-5c-1-2.4-3.3-3.9-6-3.9c-0.9,0-1.8,0.2-2.7,0.5c-1.6,0.7-2.9,1.9-3.5,3.5c-0.7,1.6-0.7,3.4,0,5
			c0.9,2,2.7,3.4,4.8,3.8c-0.1,0.8,0,1.5,0.3,2.2c0,0.2,0.1,0.5,0.2,0.7c0.4,0.8,1.6,3.2,4.5,3.8c0.5,0.1,1.1,0.2,1.6,0.2
			c0,0,0.1,0,0.1,0c0.5,1.1,1.5,2.2,3.1,3.1c0.3,0.2,0.7,0.5,1,0.7c0.8,0.6,2.2,1.5,2.4,1.9c0.3,1.1,1.2,1.9,2.2,2.3
			c-0.6,0.4-1.2,0.7-1.6,0.7c-0.1,0-0.1,0-0.2,0c-2.9,0.8-3.7,2.8-3.5,4.3c0.2,2,2.1,3.4,4.6,3.6c5.5,0.4,9,2.6,11.7,4.7
			c2.2,1.7,4,3.4,5.6,5.1c-2.3-0.2-4.6-0.4-6.9-0.6c-4.2-0.4-8.5-0.8-12.9-1c-0.3,0-0.5,0-0.8,0c-2.8,0-5.8,0.6-8.1,1.8
			c-1-1-2.4-1.7-3.9-1.7c-0.8,0-1.5,0.2-2.3,0.5c-2.8,1.2-4.2,4.3-3,7c0.8,1.9,2.7,3.1,4.9,3.1c0.4,0,0.8,0,1.1-0.1
			c1.1,0.9,2.5,1,3.1,1c0.2,0,0.4,0,0.7,0c2.9-0.4,8.4-1.1,10.1-1.3l1.5-0.2c2.6-0.3,5.5-0.6,8.1-0.6c4,0,5.4,0.7,5.8,1.1
			c0.1,0.1,0.2,0.1,0.2,0.2c-0.3,0.3-0.5,0.6-0.7,1c0,0,0,0,0,0c0,0,0,0,0,0c-0.3,0.6-1,2.5,0.9,4.4c1.8,1.9,3.5,4.7,1.7,7.8
			l-11.2,20.1c-1.6,2.9-5.6,5.2-10.9,6.4c-0.8,0.2-2.5,0.6-3.3,2.2c-0.6,1.1-0.7,2.4-0.2,3.6c-1.4-1.7-3.6-4.4-6.2-7.7
			c-25.2-31.5-53-64.2-68.3-67.1c-4.2-0.8-8.5-1.5-12.8-2.1c0.7-0.1,1.5-0.3,2.3-0.5c1.7-0.4,3.2-0.7,4.6-1.1l1.5-0.4
			c1.5-0.3,2.8-0.8,3.9-1.1l0.7-0.2c0.1,0,0.2-0.1,0.2-0.1c2.9-1.2,4.5-3.7,4.1-6.7c0-0.2-0.1-0.4-0.1-0.6l-0.1-0.3
			c0-0.1-0.1-0.2-0.1-0.2c-0.4-1-1.1-1.8-1.9-2.4c0.5-0.9,0.9-1.9,1-3.1c0-0.1,0-0.2,0-0.3c0-1.9-0.8-3.5-2.1-4.7
			c0.9,0.1,1.8,0.2,2.5,0.2h0.2c0.2,0,0.4,0,0.6-0.1c2.9-0.7,4.8-2.9,5.2-6c0-0.1,0-0.2,0-0.3c0-1.8-0.6-3.5-1.6-4.7
			c-0.6-0.7-1.3-1.2-2.1-1.6c0.4-1.2,0.6-2.4,0.7-3.7c0,0,0-0.1,0-0.1c0-0.6,0-1.2-0.1-1.8h0.4c0.6,1.8,2,3.1,4.1,3.8
			c1.4,0.5,3.3,0.7,5.7,0.7h0.1c0.1,0,0.2,0,0.2,0l0.4,0c2.3-0.2,5.5-0.5,9.6-0.8c0.2,0,0.4,0,0.6,0c0,1.2,0,2.4-0.1,3.7
			c0,0,0,0.1,0,0.1c0,10.3-0.3,17.2-0.9,20.6c-0.4,2.4-1.4,3.3-2.3,3.7c-0.5,0-0.9,0.1-1.5,0.3c0,0,0,0-0.1,0l-0.1,0
			c-4.5,0-6.4,2.8-6.7,5.4c0,0,0,0.1,0,0.1c-0.2,2.7,1.1,5.1,3.6,6.4c0.2,0.1,0.4,0.2,0.6,0.2l0.4,0.1c0.1,0,0.2,0.1,0.4,0.1
			c1.3,0.1,2.7,0.2,4.1,0.2h0.5c0.2,0,0.4,0,0.6-0.1c6.1-1.3,10.2-5,12-10.6c1.6-4.7,2.3-13,2.1-26c0-1.6,0-3.1,0-4.5c0,0,0,0,0,0
			c1.6,0.3,2.8,0.5,3.9,0.5h0.2c0.2,0,0.4,0,0.6-0.1c3-0.7,5-2.9,5.3-6c0-0.1,0-0.2,0-0.3c0-1.8-0.6-3.5-1.6-4.7
			c-1.2-1.4-2.8-2.2-4.6-2.4c-0.9-0.1-2.1-0.2-3.3-0.2c-0.5,0-1.1,0-1.7,0c-0.3-1.6-0.7-2.8-1.1-3.7c-1.3-3.2-3.8-5-6.7-5
			c-0.4,0-1,0-1.7,0.2c-2.3,0.6-4.7,2.7-4.4,6.7c0,0.1,0,0.2,0,0.4l0.1,0.5c0.1,0.3,0.2,0.6,0.3,0.9c0.1,0.2,0.3,0.5,0.4,0.8
			c-3.5,0.3-7.4,0.7-12.2,1.3c-0.4-2.2-1.8-3.9-3.6-4.8c0.8-1.3,1.3-2.6,1.7-4c0-0.1,0-0.2,0.1-0.3c0.6-4-1.5-7.1-5.4-7.9
			c-0.2,0-0.4-0.1-0.6-0.1h-0.3c-0.4,0-0.8,0-1.2,0.1c-0.9-2.5-3.1-4.1-5.9-4.1h-0.6c-0.1,0-0.2,0-0.3,0c-1.8,0.2-3.2,1-4.2,2.2
			c-0.8-1.4-2.1-2.5-3.9-3c-0.2-0.1-0.5-0.1-0.8-0.1h-0.3c-3.4,0-5.8,1.8-6.6,4.9c-0.6,1.3-1,2.7-1.2,4.1c-0.9-0.4-1.9-0.7-3-0.7
			c-0.1,0-0.2,0-0.3,0c-3.4,0.3-5.7,2.5-6.1,5.9c0,0.1,0,0.2,0,0.3c0,1,0.2,1.9,0.7,3.2c0,0.1,0.1,0.2,0.2,0.4l0.1,0.2
			c0.2,0.3,0.4,0.7,0.7,1.2c-0.8,0.2-1.5,0.4-2.2,0.6c-0.1,0-0.2,0.1-0.3,0.1c-2.5,1.1-3.9,3.1-3.9,5.7c0,2.8,2,5.8,6.5,5.8h0.6
			c0.2,0,0.4,0,0.5,0c1-0.2,2-0.4,3.1-0.5c0,0.7-0.1,1.4-0.1,2.1c0,0,0,0.1,0,0.1c0,1,0.1,1.9,0.2,2.8c-2.9,0.4-4.9,1.4-5.9,3
			c0,0,0,0.1-0.1,0.1c-0.6,1.1-0.9,2.3-0.7,3.5c0.3,2.3,2,4.2,4.5,5c0.7,0.2,1.5,0.4,2.4,0.5c-1.2,1.4-1.8,3.1-1.5,5
			c0,0,0,0.1,0,0.1c0.2,1.2,1.1,3.7,4.7,4.6l-0.6,0.1c-0.2,0-0.5,0-0.7,0.1c-3.7,1.1-4.7,4.1-4.5,6.2c0,0.2,0.1,0.4,0.1,0.6l0.1,0.3
			c0,0.1,0,0.1,0.1,0.2c0.4,1,1,1.8,1.7,2.4c-6.2-0.5-12.3-0.8-18.5-0.8c-13,0-26.2,1.2-39.2,3.7C132.8,80.3,92,128.2,78,148.7
			c0-0.7-0.2-1.4-0.5-2.1c-0.8-1.6-2.5-2-3.4-2.2c-5.3-1.2-9.3-3.6-10.9-6.4L52,117.9c-1.8-3,0-5.9,1.7-7.7c2-2,1.2-3.9,0.9-4.5
			c-0.2-0.3-0.4-0.6-0.7-0.9c0.1-0.1,0.1-0.1,0.2-0.2c0.5-0.4,1.9-1.2,5.9-1.2c2.6,0,5.5,0.3,8.1,0.6l1.4,0.1
			c1.7,0.2,7.2,0.9,10.2,1.3c0.2,0,0.4,0,0.6,0c0.3,0,0.7,0,1.3-0.1c0.5,0.6,1.2,1.1,2,1.5c0.7,0.3,1.5,0.5,2.3,0.5
			c2.2,0,4.1-1.2,4.9-3.1c0.6-1.3,0.5-2.9-0.1-4.2c-0.6-1.2-1.6-2.2-2.9-2.8c-0.7-0.3-1.5-0.5-2.3-0.5c-1,0-2,0.3-2.8,0.8
			c-2.4-2.4-6.6-3.6-10.6-3.6c-0.3,0-0.5,0-0.8,0c-4.3,0.2-8.7,0.6-12.9,1c-2.4,0.2-4.7,0.4-7.1,0.6c1.6-1.8,3.5-3.5,5.7-5.2
			c2.8-2.1,6.3-4.4,11.7-4.7c2.5-0.1,4.4-1.5,4.6-3.6c0.2-1.5-0.6-3.5-3.5-4.3c-0.1,0-0.1,0-0.2,0c-0.4-0.1-1-0.4-1.6-0.7
			c1-0.4,1.9-1.2,2.2-2.3c0.2-0.5,1.5-1.4,2.4-2c0.3-0.2,0.7-0.5,1-0.7c1.6-1,2.6-2,3.1-3.1c0.1,0,0.1,0,0.2,0
			c0.5,0,1.1-0.1,1.5-0.2c3-0.6,4.2-3,4.6-3.8c0,0,0,0,0,0c0.2,0,0.5,0,0.7,0c2.6,0,5-1.5,6-3.9c0.7-1.6,0.7-3.4,0-5
			c-0.7-1.6-1.9-2.8-3.6-3.5c-0.9-0.4-1.7-0.5-2.7-0.5c-2.6,0-5,1.5-6,3.9c-0.3,0.8-0.5,1.6-0.5,2.5c-0.2,0-0.3,0.1-0.5,0.1
			c-0.1,0-0.1,0-0.2,0c-0.5,0.2-1.1,0.3-1.6,0.5c-1.1,0.3-2.2,0.6-3.1,1c-1.6,0.7-2.2,1.8-2.4,2.6c-2.6,0.5-5.2,2.1-7.2,3.5
			c-0.3,0.1-0.6,0.3-1,0.7c-1.5,1.1-4.3,3.3-3.9,6.2c0,0.2,0.1,0.4,0.1,0.5c-0.5-0.2-1.2-0.4-1.9-0.5c0,0-0.1,0-0.1,0
			c-0.4,0-0.9-0.1-1.5-0.3c0.3-0.4,0.4-0.9,0.5-1.2c0,0,0-0.1,0-0.1c0.1-0.6,1.6-1.9,2.5-2.6c0.3-0.3,0.7-0.6,0.9-0.8
			c0.7-0.6,2.2-1.9,2.8-3.7c0.7,0,1.4-0.1,2.1-0.3c2.1-0.6,3.7-2.2,4.5-4.7c0.1-0.2,0.1-0.5,0.1-0.7c2.6-0.2,4.8-1.8,5.8-4.2
			c0.7-1.7,0.7-3.6,0.1-5.3c-0.7-1.7-2-3.1-3.7-3.8c-0.9-0.4-1.8-0.6-2.7-0.6c-2.8,0-5.3,1.7-6.4,4.2c-0.5,1.2-0.6,2.5-0.5,3.7
			c-0.2,0-0.3,0.1-0.5,0.1c0,0-0.1,0-0.1,0c-0.4,0.2-0.9,0.3-1.3,0.5c-1.3,0.5-2.7,1-3.8,1.5c0,0-0.1,0-0.1,0.1
			c-1.7,1-2.1,2.3-2.2,3.1c-1.8,0.5-3.7,1.4-5.7,2.9c0.6-1,0.8-2.3,0.6-3.9l0,0c0-0.2-0.1-0.4-0.1-0.6c1.2-0.7,2.1-1.7,2.7-3
			c1.4-3.3-0.2-7.1-3.6-8.5c-0.9-0.4-1.7-0.5-2.7-0.5c-2.6,0-5,1.5-6,3.9c-0.7,1.7-0.6,3.5,0.1,5.1c-1.1,0.6-2.2,1.2-3,2.1
			c-0.9,0.9-1.3,2.1-1.1,3.2c-2.1,1.4-3.5,3.6-4.1,4.7c-0.2,0.3-0.4,0.6-0.5,0.8c-0.5,0.9-2,3.8-0.7,6.4c0.1,0.2,0.2,0.3,0.3,0.5
			c-0.5-0.2-1.1-0.4-1.7-0.5c0,0,0,0,0,0c0.3-1,0.1-2.1-0.5-2.9c-0.2-0.3-0.2-0.7-0.1-1.9c0-0.2,0-0.5,0.1-0.7c0.1-1,0-1.8-0.2-2.6
			c0.7-0.7,2.1-2.6,0.3-5.9c0-0.1-0.1-0.1-0.1-0.2c0-0.1-0.1-0.2-0.2-0.3c0.4-0.5,0.8-1.1,1.1-1.7c0.6-1.5,0.7-3.1,0.1-4.5
			c-0.6-1.5-1.7-2.7-3.1-3.3c-0.7-0.3-1.5-0.5-2.2-0.5c-2.4,0-4.5,1.5-5.5,3.7c-0.6,1.5-0.7,3.1-0.1,4.5c0.2,0.4,0.4,0.8,0.6,1.2
			c-0.5,0.6-1.1,1.3-1.5,2c0,0-0.1,0.1-0.1,0.1c-0.5,1-0.5,2.1,0,3.1c-0.7,1.1-1.3,2.6-1.5,4.8c0,0.1,0,0.1,0,0.2v0.4
			c-0.1,2.3,0.4,3.9,1.3,5c-0.9,0.6-1.3,1.3-1.4,1.8c-0.6,1.6,0,3.5,1.6,4.7c3.3,2.9,5.8,5.9,8.4,9c0.7,0.9,1.4,1.7,2.1,2.6
			c0.5,0.6,1.1,1.3,1.7,1.9c1.9,2.2,3.9,4.5,4.5,6.4c0,0,0,0.1,0,0.1c0,0.1,0,0.1,0,0.2c0.1,0.8,0.3,2.9,2.4,4
			c0.4,0.2,0.9,0.4,1.3,0.5c1.3,0.6,3.2,1.2,5.1,1.4c-2,0.6-4.2,1.4-5.4,1.8c-1.1,0.2-2.1,0.6-3,1c-1.5,0.7-2.5,1.7-3.1,2.8
			c-0.6,1.2-0.5,2.6,0.1,3.6c0.5,0.9,1.4,1.6,2.5,1.9c3.9,1.4,6.5,3.1,7.6,5l13.8,24.7c0.5,1,1,2.8-0.8,5.7
			c-0.7,1.1-0.8,2.5-0.3,3.6c0,0.1,0.1,0.1,0.1,0.2c1,1.8,3.3,2.8,6.4,2.8c0.4,0,0.9,0,1.3-0.1c-2.3,1.2-4.1,3.3-5.1,5.9
			c-0.9,2.4-0.8,4.9,0.3,7.2c1.2,2.6,3.7,4.7,7,5.9c0.5,0.2,1.1,0.4,1.6,0.5c0.9,0.3,1.7,0.6,2.5,0.9c20.2,8.6,36.1,22.6,49.4,35
			c11.2,10.5,24.7,15.9,40.2,16.1c3.9,0,7.8,0,11.8,0c3.9,0,7.8,0,11.8,0c3.8,0,7.6,0,11.3,0c0.1,0,0.2,0,0.4,0c0.1,0,0.2,0,0.3,0
			c0.7,0,1.3,0,2,0c1.7,0,3.4,0,5.1,0c1.7,0,3.3,0,5,0c2.9,0,6.8,0.1,10.7,0.5c2.5,0.2,4.9,0.3,7.2,0.3c20.8,0,38.2-7.2,53.2-22.1
			c15.6-15.6,30.9-25.5,48.1-31.3c2.8-0.9,4.9-2.9,6.1-5.5c1.1-2.5,1.1-5.4,0-7.8c-0.6-1.4-1.5-2.6-2.6-3.6c2.4-0.3,4.2-1.2,5-2.7
			c0-0.1,0.1-0.1,0.1-0.2c0.6-1.1,0.5-2.5-0.2-3.6c-1.9-3-1.4-4.7-0.9-5.7l13.8-24.8c1-1.8,3.7-3.6,7.6-5c1.1-0.3,2-1,2.5-1.9
			c0.6-1.2,0.7-2.5,0.1-3.7c-0.5-1.1-1.6-2.1-3-2.8c-0.9-0.5-1.9-0.8-3-1.1c-1.1-0.4-3.1-1.1-5.1-1.8c1.8-0.2,3.6-0.8,4.8-1.4
			c0.4-0.1,0.9-0.3,1.3-0.5c2.2-1.1,2.4-3.2,2.4-4c0-0.1,0-0.1,0-0.2c0,0,0-0.1,0-0.1c0.5-1.9,2.5-4.2,4.5-6.4
			c0.6-0.7,1.1-1.3,1.7-1.9c0.7-0.9,1.4-1.7,2.2-2.6c2.6-3.1,5.1-6.1,8.4-9.1C369.4,77.9,369.9,76.1,369.3,74.5z M224.4,35.7
			c0,0.5,0,0.9,0.1,1.1c-0.1,0.8-0.5,1.7-1.2,2.8c-0.2,0.3-0.4,0.7-0.6,1c-0.7,0.1-1.4,0.1-2.1,0.2c-0.1-0.2-0.2-0.4-0.3-0.5
			c0,0,0,0,0-0.1c0-0.1-0.1-0.5-0.2-1.2c0-0.8,0.2-1.9,0.6-3.1c0.1,0,0.2,0,0.3,0C222.2,35.8,223.3,35.7,224.4,35.7z"/>
	</g>
	<g>
		<path class="st3" d="M303.6,155.2c-10,7.3-18.1,7.2-26.3,1.7c-14-9.5-27.9-10.1-42-0.3c-0.6,0.4-1.3,0.8-1.9,1.1
			c-7,4.4-14.1,4.1-21.2,0.2c-4.8-2.6-9.5-5.7-14.5-7.2c-9.7-2.9-19.2-0.8-27.9,5.3c-9.2,6.4-18,6.4-27.3,0
			c-13.1-8.9-26.3-8-39.8-0.1c-4.8,2.9-10.6,4-16,4.6c-3.2,0.3-6.5-2.1-10.4-3.5c5.3-11.6,55.8-73.7,74.4-77.2
			c26.3-4.9,52.7-4.8,78.9,0.3C249.6,83.9,297.2,148.3,303.6,155.2z"/>
		<path class="st4" d="M133.8,199.9c4.3,6.1,8.7,12.1,13.6,19.1c-9-2.3-16.5-5.5-22.7-10.8c-8.5-7.3-17.1-14.6-25.6-21.8
			c-1.9-1.6-4.1-3.1-5.7-4.3c9-3,17.6-6.3,26.6-8.5c3.8-0.9,9.1-0.5,12.5,1c17.2,7.9,33.9,8.2,50.9-0.2c5.4-2.7,11.3-2.3,16.6,0.3
			c16.5,8.1,32.9,7.8,49.4-0.1c5.3-2.5,10.7-2.3,16.2-0.3c7.7,2.7,15.4,5.1,23.4,7.8c-0.1,0.1-0.7,1-1.6,1.7
			c-9.4,7.8-19,15.5-28.2,23.4c-6.6,5.7-14.1,9.5-23.7,11.8c4.3-6,8.3-11.4,12.2-16.9c-0.3-0.3-0.7-0.6-1-0.9
			c-8.2,8.2-14.8,18.4-30.1,18.4c2.1-6.8,4.2-13.1,6.2-19.5c-0.4-0.1-0.7-0.2-1.1-0.3c-2.1,3.9-4.2,7.9-6.4,11.8
			c-3.3,6-8.2,9.4-16.6,8.2c-3.3-0.4-4.5-1.2-4.7-4c-0.4-5.2-1.2-10.3-3.1-15.4c-0.7,5.2-1.5,10.4-2,15.6c-0.3,2.8-1.8,3.4-4.9,3.8
			c-8.5,1.2-13.2-2.5-16.5-8.4c-2.1-3.7-4-7.5-6-11.3c-0.4,0.1-0.8,0.2-1.2,0.3c2,6.1,3.9,12.3,6,18.9c-7.6,1.1-13.4-2.3-18.3-6.4
			c-5-4.1-9-9-13.5-13.6C134.2,199.5,134,199.7,133.8,199.9z"/>
		<g>
			<path id="XMLID_6_" class="st2" d="M165.5,108.4c-2.9,6-9.1,9.3-13.9,7.4c-4.7-1.9-6.2-8.3-3.3-14.3s9.1-9.3,13.9-7.4
				C167,96,168.4,102.4,165.5,108.4z"/>
			<path id="XMLID_5_" class="st2" d="M218.3,108.4c2.9,6,9.1,9.3,13.9,7.4c4.7-1.9,6.2-8.3,3.3-14.3s-9.1-9.3-13.9-7.4
				C216.8,96,215.4,102.4,218.3,108.4z"/>
		</g>
		<path id="XMLID_4_" class="st2" d="M209.3,131.1c-0.1,4.4-8.1,9.9-17.7,9.6c-9.6-0.3-17.2-6.3-17.1-10.7c0.1-4.4,7.9-3.2,17.5-2.9
			C201.6,127.4,209.4,126.7,209.3,131.1z"/>
		<path class="st5" d="M190.6,225.4c-11.7,0-23.5,0.1-35.2,0c-15.4-0.2-28-5.7-38.3-15.3c-14.8-13.8-30.3-27-50.2-35.5
			c-1.4-0.6-2.9-1-4.3-1.5c-4.8-1.7-7-5.5-5.6-9.4c1.5-4.1,5.4-6.2,10.7-5.1c2.8,0.5,5.7,1.6,8.2,2.8c10.3,4.9,20.3,5,30.9,0.1
			c11.6-5.5,23.8-5.7,35.6-0.1c10.4,4.9,20.5,5.2,30.9,0.2c12.7-6.1,25.4-5.3,38,0.6c8.8,4.1,17.8,4.2,26.6,0.1
			c13.5-6.4,26.8-6.5,40.4,0.1c8.7,4.2,17.7,3.9,26.6-0.1c3.4-1.5,7-2.9,10.6-3.7c4.3-1,8.8,1.3,10.2,4.7c1.6,3.6-0.2,8.1-4.4,9.5
			c-20,6.7-35.7,18.5-49.2,32c-15.7,15.6-34.3,22.8-58.2,21C206.1,225,198.3,225.5,190.6,225.4C190.6,225.5,190.6,225.4,190.6,225.4
			z M133.8,199.9c0.2-0.2,0.5-0.4,0.7-0.6c4.5,4.6,8.5,9.5,13.5,13.6c4.9,4.1,10.7,7.5,18.3,6.4c-2.1-6.6-4.1-12.8-6-18.9
			c0.4-0.1,0.8-0.2,1.2-0.3c2,3.8,3.9,7.6,6,11.3c3.3,5.9,8,9.5,16.5,8.4c3.2-0.4,4.7-1,4.9-3.8c0.5-5.2,1.3-10.4,2-15.6
			c1.9,5.2,2.7,10.3,3.1,15.4c0.2,2.8,1.4,3.6,4.7,4c8.4,1.1,13.3-2.3,16.6-8.2c2.2-3.9,4.3-7.9,6.4-11.8c0.4,0.1,0.7,0.2,1.1,0.3
			c-2,6.4-4,12.7-6.2,19.5c15.3,0,21.9-10.2,30.1-18.4c0.3,0.3,0.7,0.6,1,0.9c-3.9,5.4-7.9,10.9-12.2,16.9
			c9.6-2.4,17.2-6.2,23.7-11.8c9.2-8,18.8-15.6,28.2-23.4c0.9-0.7,1.6-1.6,1.6-1.7c-8-2.6-15.8-5.1-23.4-7.8
			c-5.5-1.9-10.9-2.2-16.2,0.3c-16.5,7.9-32.8,8.1-49.4,0.1c-5.3-2.6-11.2-2.9-16.6-0.3c-17,8.3-33.8,8.1-50.9,0.2
			c-3.5-1.6-8.7-2-12.5-1c-9,2.2-17.7,5.6-26.6,8.5c1.6,1.2,3.7,2.6,5.7,4.3c8.6,7.3,17.1,14.5,25.6,21.8
			c6.2,5.3,13.7,8.6,22.7,10.8C142.4,212,138.1,206,133.8,199.9z"/>
		<g>
			<path class="st6" d="M119.2,70.9c-2.1,0-3.4-1.3-3.5-3.4v-0.2c0.2-1,0.8-2.2,2.6-2.9c3-1.7,5-2.9,6.1-3.6
				c1.3-0.9,2.2-1.3,2.9-1.3h0.2c1.1,0,1.9,0.6,2.3,1.8l0.1,0.4c0,0.8-0.3,1.7-0.9,2.4c-0.8,1.1-2.1,2.5-4,4.1
				c-2,1.7-3.8,2.6-5.3,2.8C119.5,70.9,119.4,70.9,119.2,70.9z M139,70.8c-2.9-0.6-3.3-2.5-3.3-3.5c0.2-7.2,0.7-14.4,1.5-21.3
				c0.4-4.4,1-8.7,1.7-12.6c0.7-2.7,2-3.2,3-3.2c0.1,0,0.3,0,0.4,0c1,0.1,1.7,0.4,2.3,1c0.6,0.7,0.7,1.6,0.6,2.7
				c-0.5,4.2-0.9,8.7-1.3,13.5c-0.6,7.5-0.9,13.9-0.8,19.1c0.1,2.2-1.2,3.8-3.7,4.3H139z M186,70c-1.4,0-3-0.8-4.9-2.3
				c-1.8-1.3-3.8-3.1-6.2-5.3s-4.6-4.5-6.6-6.8c-2.7-2.8-3.4-4-3.5-4.8c-0.5-1.1-0.4-2.1,0.2-3.1c0.3-0.6,1.1-1.4,2.6-1.4
				c0.2,0,0.4,0,0.5,0l0,0c0.5,0,1.1,0.3,2,1l0.7-0.7l6.7-8c1.1-1.4,2.3-2.2,3.6-2.2c0.2,0,0.4,0,0.5,0c1.9,0.3,2.9,1.6,2.7,3.3
				c-0.1,0.8-0.7,1.7-1.9,2.9c-1.3,1.6-2.9,3.4-4.5,5.4c-1.3,1.6-2.3,2.9-3,3.9c1.1,1.2,2.4,2.3,3.7,3.4c2.6,2.4,5.5,4.5,8.6,6.3
				c2.1,0.7,3.1,2.4,2.7,4.7c-0.4,2.1-1.7,3.3-3.8,3.5L186,70z M159.2,68.7c-2.4,0-4.5-0.9-6.1-2.7c-1.6-1.8-2.3-4.6-2.1-8.5
				c-0.1-1.7,0.2-4.2,0.8-7.7c0.6-3.4,1.4-6,2.5-7.9c0.8-1.5,1.8-2.3,3-2.3c0.2,0,0.5,0,0.7,0.1c1.5,0.3,2.3,1.4,2.4,3v0.4
				c-0.1,0.5-0.4,1.3-0.8,2.2c-0.5,1-0.9,2.4-1.3,4.3c-0.4,2-0.8,4.5-1,7.3c-0.1,3.1,0.4,4.1,0.7,4.3c0.4,0.6,0.8,0.8,1.4,0.8
				c1.3-0.1,2.2-0.5,2.6-1l0.1-0.1c0.9-0.8,1.7-1.2,2.5-1.2c0.2,0,0.3,0,0.5,0.1c1.8,0.2,2.8,1.7,2.5,3.8v0.2
				c-0.3,1.2-1.3,2.4-3.1,3.4C162.9,68.2,161.1,68.7,159.2,68.7z M126,53.9c-0.1,0-0.3,0-0.4,0c-1.2-0.1-2.4-0.3-3.7-0.7
				c-1.3-0.3-2.5-0.8-3.6-1.3c-1.2-0.6-2.1-1.1-2.7-1.8c-0.7-0.7-1.1-1.7-1.1-2.7v-0.2c0.3-1.7,1.4-2.7,3.1-2.8c0.1,0,0.2,0,0.3,0
				c1,0,2.1,0.3,3.5,1c1.1,0.5,2.2,1,3.1,1.3s2,0.6,3,1l0.2,0.1c1.3,0.8,1.9,2,1.7,3.5C128.8,53,127.6,53.9,126,53.9z M158.2,39
				c-2,0-3.3-1.1-3.5-3c-0.1-1,0.2-2.4,2.5-3.6l0.2-0.1c1.2-0.4,2.5-0.8,4.1-1.2c1.6-0.4,3.2-0.8,4.7-1.1c1.7-0.3,2.9-0.5,3.6-0.5
				c2.9,0.2,3.6,2,3.8,3v0.2c0.1,2.2-1.1,3.7-3.3,4.1h-0.2c-0.9,0-2,0.1-3.3,0.3s-2.7,0.5-4.3,0.8c-1.5,0.4-2.6,0.7-3.2,0.9
				l-0.2,0.1C158.9,39,158.5,39,158.2,39z M129.9,39c-1.1,0-2.3-0.6-3.8-1.8c-1.9-0.9-4.6-2-7.9-3.3l-0.1-0.1
				c-1.6-0.8-2.5-1.8-2.8-2.9v-0.4c0.1-2.3,1.3-3.7,3.3-3.9c0.1,0,0.3,0,0.5,0c0.8,0,1.8,0.2,3.1,0.7c3.6,1.3,6.6,2.5,8.9,3.6
				c2.5,1.4,2.8,3.3,2.5,4.6c-0.2,2-1.5,3.2-3.5,3.5L129.9,39z M146.8,26.8c-2.1,0-3.4-1.1-3.6-3.1c-0.1-1,0.2-2.5,2.6-3.7
				c2.3-0.9,4.9-1.8,7.9-2.6c2.9-0.9,6-1.7,9.1-2.3c3.2-0.6,5.4-1,6.8-1c3.2,0.3,4.1,2.3,4.3,3.4v0.2c0.1,2.5-1.2,4.2-3.7,4.6H170
				c-2,0.1-4.3,0.3-6.9,0.7c-2.6,0.4-5.5,1-8.6,1.8s-5.3,1.4-6.5,1.8l-0.2,0.1C147.5,26.8,147.1,26.8,146.8,26.8z"/>
			<path class="st6" d="M255.8,77.5c-1.6,0-2.9-0.1-3.8-0.2l-0.4-0.1c-1.5-0.8-2.2-2.1-2.1-3.7c0.1-0.9,0.6-2.9,3.9-2.9
				c0.2,0,0.5,0,0.8-0.1c0.4-0.1,0.9-0.2,1.4-0.2c2.4-0.9,3.9-2.8,4.5-6c0.6-3.6,0.9-10.7,0.9-21.1c0.1-2.5,0.1-4.8,0-6.8
				c-1.1,0.1-2.4,0.1-3.6,0.2c-4.3,0.3-7.7,0.6-10,0.8h-0.1c-2.1,0-3.7-0.2-4.8-0.6c-1.7-0.5-2.3-1.6-2.4-2.5
				c-0.1-0.5,0-1.1,0.3-1.6c0.6-0.9,1.8-1.4,3.9-1.7c6.2-0.7,11.6-1.3,16.1-1.6c-0.4-2-0.9-3.6-1.6-4.8l-0.1-0.5
				c-0.2-2.9,1.6-3.6,2.4-3.8c0.3-0.1,0.6-0.1,0.9-0.1c1.3,0,3,0.6,4.1,3.3c0.6,1.2,1,3.1,1.3,5.5c1.5-0.1,2.9-0.1,4.1-0.1
				c1.1,0,2.1,0.1,3,0.2c1.1,0.1,2.1,0.6,2.8,1.4c0.6,0.7,0.9,1.7,0.9,2.8c-0.2,1.9-1.3,3.1-3.1,3.5h-0.2c-0.8,0-1.8-0.1-3.3-0.4
				c-1.2-0.2-2.4-0.3-3.6-0.3c0.2,2.3,0.2,4.8,0.2,7.6c0.1,12.4-0.5,20.6-2,25.1c-1.5,4.7-4.8,7.6-9.9,8.7L255.8,77.5z M212.7,73
				c-2.5,0-3.5-1.3-3.9-2.3l-0.1-0.3c-0.1-0.9,0.2-2.5,2.5-3.2h0.2c1.9-0.4,3.8-0.8,5.7-1.2c0-0.1,0-0.2,0-0.4c0-1.1,0-2.4,0.1-4
				c-0.3,0-0.5,0-0.7,0.1h-2.6c-3-0.2-3.9-1.5-4.1-2.6c-0.1-0.7-0.1-2.2,1.6-3.4l0.3-0.1c1.3-0.4,3.2-0.7,5.8-0.8
				c0.1-1,0.1-1.9,0.2-2.7c0-0.4,0.1-0.7,0.1-1c-2.2,0.2-4,0.5-5.3,0.8h-0.3c-2.3,0-4-0.2-5.2-0.6c-1.9-0.6-2.5-1.8-2.6-2.7
				c-0.1-0.5,0-1.1,0.3-1.6c0.6-0.9,2-1.5,4.2-1.8c0.9-0.1,1.8-0.2,2.7-0.3c-0.3-1.2-0.6-2.9-0.7-5.4c0-2.2,0.2-3.9,0.6-5.4
				c-2.6,0.3-4.9,0.6-7,1c-0.3,0-0.5,0-0.6,0c-3.2,0-3.7-2.1-3.7-3c0-0.9,0.3-2.3,2.2-3.1c1.7-0.5,3.8-1,6.4-1.4
				c-0.4-0.3-0.9-0.9-1.6-1.9c-0.8-1.2-1.3-2.1-1.7-2.8c-0.4-1-0.5-1.6-0.5-2.1c0.2-2,1.4-3.2,3.5-3.4l0,0c1.4,0,2.5,0.6,3,1.7
				c0.6,1.6,1.3,2.8,2,3.5s1.2,1.6,1.2,2.7c0,0.6-0.2,1.1-0.4,1.5c0.6-0.1,1.2-0.1,1.8-0.2c-0.6-0.5-1.2-1.3-1.5-2.5
				c-0.2-0.9-0.3-1.7-0.4-2.4c-0.1-0.7-0.1-1.5-0.1-2.5c-0.1-1,0-2.2,0.2-3.5c0.2-1.3,0.6-2.6,1.1-3.7c0.4-2,1.8-3,3.9-3h0.3
				c1.8,0.5,2.7,1.9,2.6,4v0.2c-0.3,1.1-0.6,2.3-0.7,3.3c-0.2,1.1-0.3,2.2-0.2,3.3c0,1.3,0.1,1.9,0.1,2.1c0.1,0.7,0.2,1,0.3,1.1
				l0.1,0.4c0,1.3-0.3,2.1-0.7,2.7c3.1-0.2,5.9-0.4,8.6-0.6c-0.1-0.2-0.2-0.3-0.2-0.5v-0.2c0-0.2,0-0.4,0-0.7c-0.7,0.8-1.6,1-2.1,1
				c-0.1,0-0.2,0-0.3,0l0,0c-1.2,0-2.1-0.6-2.5-1.7c-0.4-0.8,0-1.8,0.4-2.7c0.5-1.9,0.8-3.5,0.8-4.8v-2.6c0-2,1-3.2,2.9-3.4
				c0.2,0,0.4,0,0.6,0c2.1,0,3.4,1.3,3.5,3.5v2.4V16c-0.3,2-0.7,3.6-1.2,4.9c0.2-0.4,0.5-0.8,0.6-1.2c0.4-1,0.7-2.1,1.1-3.6L233,16
				c0.6-1.4,1.8-2.1,3.4-2.1h0.3c2.4,0.5,3.6,2.2,3.2,4.7c-0.5,1.9-1.5,3.7-2.9,5.4c-0.5,0.6-1,1.1-1.5,1.5c1,0,1.9,0,2.8,0
				c2.2,0.2,3.4,1.6,3.6,3.8v0.4c-0.4,1.9-1.7,3-3.7,3.2c-1.5,0-2.9,0-4.3,0c0.2,1.2,0.4,2.7,0.4,4.6c-0.1,2-0.8,4-2,5.8
				c0.5,0,0.9,0.1,1.3,0.1c1.1,0.1,2.1,0.6,2.8,1.4c0.6,0.7,0.9,1.7,0.9,2.8c-0.2,1.9-1.3,3.1-3,3.5h-0.2c-0.8,0-1.9-0.1-3.3-0.4
				c-1.2-0.2-2.5-0.3-3.8-0.3c-0.8,0-1.8,0-2.8,0.1c0,0.4-0.1,0.9-0.2,1.4c0,0.6-0.1,1.6-0.2,2.9c2.1,0,3.6,0.2,4.8,0.4l0.2,0.1
				c1.3,0.6,2,1.7,2,3.1c-0.2,2.2-1.5,3.4-3.6,3.4h-0.3c-1,0-2.1,0-3.2,0c0,1,0.1,1.9,0.2,2.6c1.8-0.5,3.1-0.8,4-1
				c0.3,0,0.6-0.1,0.8-0.1c2.1,0,2.9,1.3,3.2,2l0.1,0.3c0.2,1.7-0.7,3-2.4,3.7c-1.3,0.4-2.8,0.9-4.5,1.3s-3.7,0.9-6,1.4
				c-2.4,0.5-4.4,0.9-6,1H212.7z M218.4,33.6l-0.1,0.4c-0.6,1.8-1,3.6-1,5.1c0.1,1.3,0.3,2.1,0.5,2.4c0.4,0.8,0.6,1.5,0.7,2.2v0.1
				c2.3-0.2,4.5-0.4,6.3-0.6c0.1-0.7,0.3-1.3,0.8-2c1-1.5,1.6-2.9,1.7-4.3c0-1-0.1-2.4-0.4-3.9v-0.2v-0.1c-2,0.1-4,0.2-6.1,0.3
				c-0.8,0.1-1.6,0.1-2.3,0.2C218.4,33.5,218.4,33.5,218.4,33.6z M251.3,55.6c-1-0.1-1.9-0.5-2.7-1.4c-1-0.8-2.1-1.8-3.2-2.8
				c-1.3-1.1-1.6-2.2-1.6-3c0.1-0.8,0.4-2.2,2.3-2.8h0.2c0.2,0,0.3,0,0.5,0c0.9,0,1.8,0.4,2.9,1.2c1.3,0.8,2.5,1.6,3.6,2.3
				c2,1.3,1.8,2.9,1.6,3.8c-0.3,1.5-1.5,2.5-3.2,2.7H251.3z"/>
		</g>
		<g>
			<g>
				<path class="st3" d="M43.9,105.5c3.6-0.8,7.3-0.2,8.2,1.5c0.2,0.4,0,0.8-0.4,1.2c-3.5,3.7-4.1,7.7-2.1,11.1l11.2,20.1
					c1.9,3.4,6.2,6.3,12.7,7.8c0.8,0.2,1.3,0.4,1.5,0.8c0.9,1.6-1.3,3.6-5,4.4c-2.2,0.5-4.5,0.4-6.1-0.1c-0.7,0.6-1.8,1.1-3.2,1.4
					c-2.9,0.6-5.7,0.1-6.4-1.1c-0.1-0.2-0.1-0.5,0.1-0.8c1.9-3,2.4-5.9,1-8.6l-13.8-24.8c-1.5-2.7-4.9-4.8-9.2-6.3
					c-0.4-0.1-0.7-0.3-0.8-0.5c-0.7-1.3,1-2.8,3.9-3.4c1.4-0.3,2.8-0.3,3.9-0.2C40,106.9,41.7,106,43.9,105.5z"/>
				<path class="st3" d="M43.9,105.5c3.6-0.8,7.3-0.2,8.2,1.5c-6.4,0.1-7.6,1.7-8,2.2c-3.5,3.7-0.5,7.6,1.4,11l11.2,20.1
					c1.9,3.4,2.2,8.3,8.6,9.8c0.8,0.2,5.5,1.4,9.6-2.1c0.9,1.6-1.3,3.6-5,4.4c-2.2,0.5-8,1.1-9.4,1.4c-2.9,0.6-5.7,0.1-6.4-1.1
					c-0.1-0.2-0.1-0.5,0.1-0.8c1.9-3,2.4-5.9,1-8.6l-13.8-24.8c-1.5-2.7-4.9-4.8-9.2-6.3c-0.4-0.1-0.7-0.3-0.8-0.5
					c-0.7-1.3,1-2.8,3.9-3.4C36.6,107.8,41.7,106,43.9,105.5z"/>
			</g>
			<path class="st3" d="M51.3,98.3c6.7-0.5,13.4-1.3,20.2-1.6c4.7-0.2,10.1,1.7,10.5,5.1c0.1,0.5-0.9,0.9-1.9,0.8
				c-3-0.4-8.5-1.1-10.2-1.3c-5.9-0.6-14.5-1.8-17.7,1.2c-0.8,0.8-3.1,0.5-4.1-0.3c-2.6-2.1-1.2-3.5,2.9-3.9
				C51.1,98.3,51.2,98.3,51.3,98.3z"/>
			<path class="st3" d="M18.3,73.1c2.3,0.4,4.9,0.3,6,0c2.2-0.5,4.2,0.9,3.4,1.9c-2.2,2.9-0.2,6.4,2.2,9.4
				c3.1,3.9,6.9,7.7,11.5,11.3c1.1,0.9,2.8,1.8,3,2.9c0.3,1.4-4.8,0.9-6.7,1c-0.9,0-1.9,0-2.6-0.4c-1.2-0.6-0.8-1.8-1.1-2.6
				c-0.9-3.2-4.2-6.4-6.7-9.4c-3.4-4-6.4-8-10.8-11.9C15.3,74.3,15,72.6,18.3,73.1z"/>
			<path class="st3" d="M33.8,72.2c2.1,0.7,4.7,1,6,1c2.5-0.1,3.6,1.5,2.3,2.2c-3.9,2.2-4,5.7-3.5,8.8c0.7,4,2.3,8,4.7,12
				c0.6,1,1.7,2.1,1.2,3.1c-0.6,1.3-5.4,0-7.3-0.2c-0.9-0.1-1.9-0.3-2.4-0.8c-0.9-0.8,0.3-1.8,0.5-2.5c1-3-0.4-6.4-1.1-9.5
				c-0.9-4.2-1.6-8.3-3.6-12.4C30,72.8,30.7,71.2,33.8,72.2z"/>
			<path class="st3" d="M49.8,73.9c1.7,1,4.1,1.7,5.4,1.8c2.6,0.3,2.8,1.9,0.9,2.4c-5.3,1.4-7.5,4.5-8.8,7.4
				c-1.7,3.7-2.6,7.6-2.5,11.6c0,1,0.4,2.2-0.6,3c-1.4,1.1-5.4-0.8-7.2-1.3c-0.9-0.2-1.7-0.6-2-1.1c-0.4-0.8,1.3-1.6,2-2.1
				c2.8-2.5,3.5-5.8,4.7-8.8c1.6-3.9,3.4-7.7,3.9-11.8C45.7,73.8,47.3,72.5,49.8,73.9z"/>
			<path class="st3" d="M64.8,77.9c1.2,1.1,3.1,2.2,4.4,2.5c2.4,0.7,1.6,2.2-0.5,2.3c-6.1,0.4-10.2,2.9-13.3,5.3
				c-4,3.1-7.2,6.4-9.5,10c-0.6,0.9-0.9,2-2.4,2.6c-2.1,0.8-5.9-0.3-7.5-1.1c-0.7-0.4-0.4-2.1-0.3-2.6c0.1-0.8,2.3-1.2,3.3-1.6
				c4.3-1.9,7-4.7,10-7.1c4-3.3,8.1-6.4,11-10C60.8,77.2,63.2,76.3,64.8,77.9z"/>
			<path class="st3" d="M16,66c0-0.2,0-0.4,0-0.5c0.1-1.3,0.5-6,5.2-4.1c1.8,0.8,1.8,2.2,1.7,3.1c-0.1,1.4-0.5,3,0.6,4.5
				c0.3,0.4,0,0.8-0.5,1s-1.2,0.3-1.9,0.4c-0.4,0.1-0.9,0.1-1.4,0.1C16,70.2,15.9,67.6,16,66z"/>
			<path class="st3" d="M17.2,58.6c0.4-0.7,1.2-1.5,1.8-2.2c0.4-0.5,2.1-0.8,3-0.1c0.6,0.4,1.3,1.4,1.3,1.4c0.4,0.7,0.9,1.9,0.2,2.5
				c-0.8,0.7-2.6,0.4-4.1,0.1C18,60.1,16.8,59.4,17.2,58.6z"/>
			<path class="st3" d="M31,65.2c0.1-0.2,0.2-0.4,0.3-0.5c0.8-1.4,3.7-6.6,8.2-3.8c1.8,1.1,1,2.6,0.4,3.7c-0.9,1.6-2.1,3.2-1.6,5
				c0.1,0.4-0.4,0.8-1.1,1c-0.7,0.2-1.6,0.2-2.5,0.2c-0.6,0-1.2,0-1.7-0.1C28.9,69.9,30.1,66.9,31,65.2z"/>
			<path class="st3" d="M36.2,57.2c0.8-0.8,2.2-1.5,3.3-2.1c0.8-0.5,2.8-0.6,3.6,0.2c0.5,0.5,0.9,1.7,0.9,1.8c0.1,0.9,0.2,2.2-1,2.8
				c-1.4,0.7-3.3,0.1-4.9-0.4C36.3,59,35.3,58.1,36.2,57.2z"/>
			<path class="st3" d="M45.2,65.1c0.2-0.2,0.5-0.4,0.6-0.5c1.6-1.4,7.7-6.6,11.6-3c1.5,1.4-0.2,3-1.4,4c-1.8,1.6-4.1,3.2-4.4,5.2
				c-0.1,0.5-0.9,0.8-1.9,0.9c-0.9,0.1-2,0-3-0.1c-0.7-0.1-1.4-0.1-2-0.3C40.3,69.9,43.2,66.8,45.2,65.1z"/>
			<path class="st3" d="M55.4,57.2c1.4-0.7,3.3-1.3,4.9-1.9c1.2-0.4,3.7-0.3,4.1,0.8c0.3,0.6,0.3,1.2,0.1,1.8c0,0.1,0,0.2,0,0.3
				c-0.3,0.9-0.9,2.4-2.6,2.9c-2,0.6-3.9-0.3-5.6-1.1C54.7,59.1,54,58,55.4,57.2z"/>
			<path class="st3" d="M63,68.8c0.2-0.2,0.4-0.3,0.6-0.4c1.6-1.1,7.5-5.3,10.4-2.1c1.1,1.2-0.5,2.5-1.8,3.3c-1.8,1.3-4,2.5-4.5,4.2
				c-0.1,0.4-0.9,0.7-1.7,0.7c-0.8,0-1.7-0.1-2.6-0.2c-0.6-0.1-1.2-0.2-1.6-0.3C58.2,72.6,61.1,70.2,63,68.8z"/>
			<path class="st3" d="M72.9,62.5c1.3-0.6,3-0.9,4.5-1.4c1.1-0.3,3.2-0.1,3.4,0.8c0.1,0.5,0.1,1-0.2,1.5c0,0.1,0,0.1,0,0.2
				c-0.4,0.8-1.1,2-2.6,2.3c-1.8,0.4-3.4-0.4-4.6-1.1C72,64.1,71.5,63.1,72.9,62.5z"/>
		</g>
		<g>
			
				<ellipse transform="matrix(0.3913 -0.9203 0.9203 0.3913 -2.7645 112.6169)" class="st6" cx="83.7" cy="58.4" rx="3.6" ry="3.8"/>
			
				<ellipse transform="matrix(0.3913 -0.9203 0.9203 0.3913 -20.2547 70.6216)" class="st6" cx="43.3" cy="50.6" rx="3.6" ry="3.8"/>
			<ellipse transform="matrix(0.3913 -0.9203 0.9203 0.3913 -34.8064 50.9975)" class="st6" cx="21.1" cy="51.8" rx="3.2" ry="3"/>
			
				<ellipse transform="matrix(0.3913 -0.9203 0.9203 0.3913 -41.6234 140.9962)" class="st6" cx="85.8" cy="102" rx="2.4" ry="2.7"/>
			<ellipse transform="matrix(0.3913 -0.9203 0.9203 0.3913 -6.75 92.7819)" class="st6" cx="66.8" cy="51.5" rx="4.1" ry="4.1"/>
		</g>
		<g>
			<g>
				<path class="st3" d="M338.5,107.3c-3.6-0.8-7.3-0.2-8.2,1.5c-0.2,0.4,0,0.8,0.4,1.2c3.5,3.7,4.1,7.7,2.1,11.1l-11.2,20.1
					c-1.9,3.4-6.2,6.3-12.7,7.8c-0.8,0.2-1.3,0.4-1.5,0.8c-0.9,1.6,1.3,3.6,5,4.4c2.2,0.5,4.5,0.4,6.1-0.1c0.7,0.6,1.8,1.1,3.2,1.4
					c2.9,0.6,5.7,0.1,6.4-1.1c0.1-0.2,0.1-0.5-0.1-0.8c-1.9-3-2.4-5.9-1-8.6l13.8-24.8c1.5-2.7,4.9-4.8,9.2-6.3
					c0.4-0.1,0.7-0.3,0.8-0.5c0.7-1.3-1-2.8-3.9-3.4c-1.4-0.3-2.8-0.3-3.9-0.2C342.5,108.8,340.8,107.8,338.5,107.3z"/>
				<path class="st3" d="M338.5,107.3c-3.6-0.8-7.3-0.2-8.2,1.5c6.4,0.1,7.6,1.7,8,2.2c3.5,3.7,0.5,7.6-1.4,11l-11.2,20.1
					c-1.9,3.4-2.2,8.3-8.6,9.8c-0.8,0.2-5.5,1.4-9.6-2.1c-0.9,1.6,1.3,3.6,5,4.4c2.2,0.5,8,1.1,9.4,1.4c2.9,0.6,5.7,0.1,6.4-1.1
					c0.1-0.2,0.1-0.5-0.1-0.8c-1.9-3-2.4-5.9-1-8.6l13.8-24.8c1.5-2.7,4.9-4.8,9.2-6.3c0.4-0.1,0.7-0.3,0.8-0.5
					c0.7-1.3-1-2.8-3.9-3.4C345.8,109.6,340.8,107.8,338.5,107.3z"/>
			</g>
			<path class="st3" d="M331.2,100.1c-6.7-0.5-13.4-1.3-20.2-1.6c-4.7-0.2-10.1,1.7-10.5,5.1c-0.1,0.5,0.9,0.9,1.9,0.8
				c3-0.4,8.5-1.1,10.2-1.3c5.9-0.6,14.5-1.8,17.7,1.2c0.8,0.8,3.1,0.5,4.1-0.3c2.6-2.1,1.2-3.5-2.9-3.9
				C331.4,100.2,331.3,100.1,331.2,100.1z"/>
			<path class="st3" d="M364.1,75c-2.3,0.4-4.9,0.3-6,0c-2.2-0.5-4.2,0.9-3.4,1.9c2.2,2.9,0.2,6.4-2.2,9.4
				c-3.1,3.9-6.9,7.7-11.5,11.3c-1.1,0.9-2.8,1.8-3,2.9c-0.3,1.4,4.8,0.9,6.7,1c0.9,0,1.9,0,2.6-0.4c1.2-0.6,0.8-1.8,1.1-2.6
				c0.9-3.2,4.2-6.4,6.7-9.4c3.4-4,6.4-8,10.8-11.9C367.1,76.1,367.4,74.5,364.1,75z"/>
			<path class="st3" d="M348.7,74.1c-2.1,0.7-4.7,1-6,1c-2.5-0.1-3.6,1.5-2.3,2.2c3.9,2.2,4,5.7,3.5,8.8c-0.7,4-2.3,8-4.7,12
				c-0.6,1-1.7,2.1-1.2,3.1c0.6,1.3,5.4,0,7.3-0.2c0.9-0.1,1.9-0.3,2.4-0.8c0.9-0.8-0.3-1.8-0.5-2.5c-1-3,0.4-6.4,1.1-9.5
				c0.9-4.2,1.6-8.3,3.6-12.4C352.4,74.6,351.7,73.1,348.7,74.1z"/>
			<path class="st3" d="M332.7,75.7c-1.7,1-4.1,1.7-5.4,1.8c-2.6,0.3-2.8,1.9-0.9,2.4c5.3,1.4,7.5,4.5,8.8,7.4
				c1.7,3.7,2.6,7.6,2.5,11.6c0,1-0.4,2.2,0.6,3c1.4,1.1,5.4-0.8,7.2-1.3c0.9-0.2,1.7-0.6,2-1.1c0.4-0.8-1.3-1.6-2-2.1
				c-2.8-2.5-3.5-5.8-4.7-8.8c-1.6-3.9-3.4-7.7-3.9-11.8C336.8,75.6,335.1,74.4,332.7,75.7z"/>
			<path class="st3" d="M317.6,79.8c-1.2,1.1-3.1,2.2-4.4,2.5c-2.4,0.7-1.6,2.2,0.5,2.3c6.1,0.4,10.2,2.9,13.3,5.3
				c4,3.1,7.2,6.4,9.5,10c0.6,0.9,0.9,2,2.4,2.6c2.1,0.8,5.9-0.3,7.5-1.1c0.7-0.4,0.4-2.1,0.3-2.6c-0.1-0.8-2.3-1.2-3.3-1.6
				c-4.3-1.9-7-4.7-10-7.1c-4-3.3-8.1-6.4-11-10C321.7,79,319.3,78.2,317.6,79.8z"/>
			<path class="st3" d="M366.5,67.9c0-0.2,0-0.4,0-0.5c-0.1-1.3-0.5-6-5.2-4.1c-1.8,0.8-1.8,2.2-1.7,3.1c0.1,1.4,0.5,3-0.6,4.5
				c-0.3,0.4,0,0.8,0.5,1s1.2,0.3,1.9,0.4c0.4,0.1,0.9,0.1,1.4,0.1C366.5,72.1,366.6,69.4,366.5,67.9z"/>
			<path class="st3" d="M365.2,60.5c-0.4-0.7-1.2-1.5-1.8-2.2c-0.4-0.5-2.1-0.8-3-0.1c-0.6,0.4-1.3,1.4-1.3,1.4
				c-0.4,0.7-0.9,1.9-0.2,2.5c0.8,0.7,2.6,0.4,4.1,0.1C364.5,62,365.6,61.3,365.2,60.5z"/>
			<path class="st3" d="M351.4,67.1c-0.1-0.2-0.2-0.4-0.3-0.5c-0.8-1.4-3.7-6.6-8.2-3.8c-1.8,1.1-1,2.6-0.4,3.7
				c0.9,1.6,2.1,3.2,1.6,5c-0.1,0.4,0.4,0.8,1.1,1s1.6,0.2,2.5,0.2c0.6,0,1.2,0,1.7-0.1C353.5,71.7,352.3,68.8,351.4,67.1z"/>
			<path class="st3" d="M346.3,59.1c-0.8-0.8-2.2-1.5-3.3-2.1c-0.8-0.5-2.8-0.6-3.6,0.2c-0.5,0.5-0.9,1.7-0.9,1.8
				c-0.1,0.9-0.2,2.2,1,2.8c1.4,0.7,3.3,0.1,4.9-0.4C346.1,60.9,347.1,59.9,346.3,59.1z"/>
			<path class="st3" d="M337.3,67c-0.2-0.2-0.5-0.4-0.6-0.5c-1.6-1.4-7.7-6.6-11.6-3c-1.5,1.4,0.2,3,1.4,4c1.8,1.6,4.1,3.2,4.4,5.2
				c0.1,0.5,0.9,0.8,1.9,0.9c0.9,0.1,2,0,3-0.1c0.7-0.1,1.4-0.1,2-0.3C342.1,71.7,339.2,68.7,337.3,67z"/>
			<path class="st3" d="M327,59.1c-1.4-0.7-3.3-1.3-4.9-1.9c-1.2-0.4-3.7-0.3-4.1,0.8c-0.3,0.6-0.3,1.2-0.1,1.8c0,0.1,0,0.2,0,0.3
				c0.3,0.9,0.9,2.4,2.6,2.9c2,0.6,3.9-0.3,5.6-1.1C327.8,61,328.5,59.8,327,59.1z"/>
			<path class="st3" d="M319.4,70.7c-0.2-0.2-0.4-0.3-0.6-0.4c-1.6-1.1-7.5-5.3-10.4-2.1c-1.1,1.2,0.5,2.5,1.8,3.3
				c1.8,1.3,4,2.5,4.5,4.2c0.1,0.4,0.9,0.7,1.7,0.7c0.8,0,1.7-0.1,2.6-0.2c0.6-0.1,1.2-0.2,1.6-0.3
				C324.3,74.5,321.3,72.1,319.4,70.7z"/>
			<path class="st3" d="M309.6,64.4c-1.3-0.6-3-0.9-4.5-1.4c-1.1-0.3-3.2-0.1-3.4,0.8c-0.1,0.5-0.1,1,0.2,1.5c0,0.1,0,0.1,0,0.2
				c0.4,0.8,1.1,2,2.6,2.3c1.8,0.4,3.4-0.4,4.6-1.1C310.5,66,310.9,65,309.6,64.4z"/>
		</g>
		<g>
			
				<ellipse transform="matrix(0.9203 -0.3913 0.3913 0.9203 1.4251 122.0194)" class="st6" cx="300.1" cy="57.5" rx="3.8" ry="3.6"/>
			
				<ellipse transform="matrix(0.9203 -0.3913 0.3913 0.9203 7.7093 137.2429)" class="st6" cx="340.6" cy="49.7" rx="3.8" ry="3.6"/>
			<ellipse transform="matrix(0.9203 -0.3913 0.3913 0.9203 8.9692 145.9952)" class="st6" cx="362.7" cy="51" rx="3" ry="3.2"/>
			
				<ellipse transform="matrix(0.9203 -0.3913 0.3913 0.9203 -15.7922 124.7049)" class="st6" cx="298.1" cy="101.1" rx="2.7" ry="2.4"/>
			
				<ellipse transform="matrix(0.9203 -0.3913 0.3913 0.9203 5.4843 128.1087)" class="st6" cx="317.1" cy="50.6" rx="4.1" ry="4.1"/>
		</g>
	</g>
</g>
</svg>
